<?xml version="1.0" encoding="UTF-8" standalone="no"?>
<!-- Created with Inkscape (http://www.inkscape.org/) -->

<svg
   xmlns:dc="http://purl.org/dc/elements/1.1/"
   xmlns:cc="http://creativecommons.org/ns#"
   xmlns:rdf="http://www.w3.org/1999/02/22-rdf-syntax-ns#"
   xmlns:svg="http://www.w3.org/2000/svg"
   xmlns="http://www.w3.org/2000/svg"
   xmlns:sodipodi="http://sodipodi.sourceforge.net/DTD/sodipodi-0.dtd"
   xmlns:inkscape="http://www.inkscape.org/namespaces/inkscape"
   version="1.1"
   id="svg11537"
   xml:space="preserve"
   width="540.25806"
   height="295.46664"
   viewBox="0 0 540.25806 295.46665"
   sodipodi:docname="love-color-text-retro.svg"
   inkscape:version="0.92.3 (2405546, 2018-03-11)"><title
     id="title3183">Love text</title><metadata
     id="metadata11543"><rdf:RDF><cc:Work
         rdf:about=""><dc:format>image/svg+xml</dc:format><dc:type
           rdf:resource="http://purl.org/dc/dcmitype/StillImage" /><dc:title>Love text</dc:title><cc:license
           rdf:resource="http://creativecommons.org/publicdomain/zero/1.0/" /></cc:Work><cc:License
         rdf:about="http://creativecommons.org/publicdomain/zero/1.0/"><cc:permits
           rdf:resource="http://creativecommons.org/ns#Reproduction" /><cc:permits
           rdf:resource="http://creativecommons.org/ns#Distribution" /><cc:permits
           rdf:resource="http://creativecommons.org/ns#DerivativeWorks" /></cc:License></rdf:RDF></metadata><defs
     id="defs11541"><clipPath
       clipPathUnits="userSpaceOnUse"
       id="clipPath11553"><path
         d="M 0,500 H 500 V 0 H 0 Z"
         id="path11551"
         inkscape:connector-curvature="0" /></clipPath><clipPath
       clipPathUnits="userSpaceOnUse"
       id="clipPath11563"><path
         d="M 500,0 H 0 v 500 h 500 z"
         id="path11561"
         inkscape:connector-curvature="0" /></clipPath><clipPath
       clipPathUnits="userSpaceOnUse"
       id="clipPath11571"><path
         d="m 440,550 h 70 v -70 h -70 z"
         id="path11569"
         inkscape:connector-curvature="0" /></clipPath><clipPath
       clipPathUnits="userSpaceOnUse"
       id="clipPath11581"><path
         d="m 440,480 h 70 v -70 h -70 z"
         id="path11579"
         inkscape:connector-curvature="0" /></clipPath><clipPath
       clipPathUnits="userSpaceOnUse"
       id="clipPath11595"><path
         d="m 440,410 h 70 v -70 h -70 z"
         id="path11593"
         inkscape:connector-curvature="0" /></clipPath><clipPath
       clipPathUnits="userSpaceOnUse"
       id="clipPath11609"><path
         d="m 440,340 h 70 v -70 h -70 z"
         id="path11607"
         inkscape:connector-curvature="0" /></clipPath><clipPath
       clipPathUnits="userSpaceOnUse"
       id="clipPath11623"><path
         d="m 440,270 h 70 v -70 h -70 z"
         id="path11621"
         inkscape:connector-curvature="0" /></clipPath><clipPath
       clipPathUnits="userSpaceOnUse"
       id="clipPath11637"><path
         d="m 440,200 h 70 v -70 h -70 z"
         id="path11635"
         inkscape:connector-curvature="0" /></clipPath><clipPath
       clipPathUnits="userSpaceOnUse"
       id="clipPath11651"><path
         d="m 440,130 h 70 V 60 h -70 z"
         id="path11649"
         inkscape:connector-curvature="0" /></clipPath><clipPath
       clipPathUnits="userSpaceOnUse"
       id="clipPath11665"><path
         d="m 440,60 h 70 v -70 h -70 z"
         id="path11663"
         inkscape:connector-curvature="0" /></clipPath><clipPath
       clipPathUnits="userSpaceOnUse"
       id="clipPath11677"><path
         d="m 370,550 h 70 v -70 h -70 z"
         id="path11675"
         inkscape:connector-curvature="0" /></clipPath><clipPath
       clipPathUnits="userSpaceOnUse"
       id="clipPath11689"><path
         d="m 370,480 h 70 v -70 h -70 z"
         id="path11687"
         inkscape:connector-curvature="0" /></clipPath><clipPath
       clipPathUnits="userSpaceOnUse"
       id="clipPath11707"><path
         d="m 370,410 h 70 v -70 h -70 z"
         id="path11705"
         inkscape:connector-curvature="0" /></clipPath><clipPath
       clipPathUnits="userSpaceOnUse"
       id="clipPath11725"><path
         d="m 370,340 h 70 v -70 h -70 z"
         id="path11723"
         inkscape:connector-curvature="0" /></clipPath><clipPath
       clipPathUnits="userSpaceOnUse"
       id="clipPath11743"><path
         d="m 370,270 h 70 v -70 h -70 z"
         id="path11741"
         inkscape:connector-curvature="0" /></clipPath><clipPath
       clipPathUnits="userSpaceOnUse"
       id="clipPath11761"><path
         d="m 370,200 h 70 v -70 h -70 z"
         id="path11759"
         inkscape:connector-curvature="0" /></clipPath><clipPath
       clipPathUnits="userSpaceOnUse"
       id="clipPath11779"><path
         d="m 370,130 h 70 V 60 h -70 z"
         id="path11777"
         inkscape:connector-curvature="0" /></clipPath><clipPath
       clipPathUnits="userSpaceOnUse"
       id="clipPath11797"><path
         d="m 370,60 h 70 v -70 h -70 z"
         id="path11795"
         inkscape:connector-curvature="0" /></clipPath><clipPath
       clipPathUnits="userSpaceOnUse"
       id="clipPath11811"><path
         d="m 300,550 h 70 v -70 h -70 z"
         id="path11809"
         inkscape:connector-curvature="0" /></clipPath><clipPath
       clipPathUnits="userSpaceOnUse"
       id="clipPath11823"><path
         d="m 300,480 h 70 v -70 h -70 z"
         id="path11821"
         inkscape:connector-curvature="0" /></clipPath><clipPath
       clipPathUnits="userSpaceOnUse"
       id="clipPath11841"><path
         d="m 300,410 h 70 v -70 h -70 z"
         id="path11839"
         inkscape:connector-curvature="0" /></clipPath><clipPath
       clipPathUnits="userSpaceOnUse"
       id="clipPath11859"><path
         d="m 300,340 h 70 v -70 h -70 z"
         id="path11857"
         inkscape:connector-curvature="0" /></clipPath><clipPath
       clipPathUnits="userSpaceOnUse"
       id="clipPath11877"><path
         d="m 300,270 h 70 v -70 h -70 z"
         id="path11875"
         inkscape:connector-curvature="0" /></clipPath><clipPath
       clipPathUnits="userSpaceOnUse"
       id="clipPath11895"><path
         d="m 300,200 h 70 v -70 h -70 z"
         id="path11893"
         inkscape:connector-curvature="0" /></clipPath><clipPath
       clipPathUnits="userSpaceOnUse"
       id="clipPath11913"><path
         d="m 300,130 h 70 V 60 h -70 z"
         id="path11911"
         inkscape:connector-curvature="0" /></clipPath><clipPath
       clipPathUnits="userSpaceOnUse"
       id="clipPath11931"><path
         d="m 300,60 h 70 v -70 h -70 z"
         id="path11929"
         inkscape:connector-curvature="0" /></clipPath><clipPath
       clipPathUnits="userSpaceOnUse"
       id="clipPath11945"><path
         d="m 230,550 h 70 v -70 h -70 z"
         id="path11943"
         inkscape:connector-curvature="0" /></clipPath><clipPath
       clipPathUnits="userSpaceOnUse"
       id="clipPath11957"><path
         d="m 230,480 h 70 v -70 h -70 z"
         id="path11955"
         inkscape:connector-curvature="0" /></clipPath><clipPath
       clipPathUnits="userSpaceOnUse"
       id="clipPath11975"><path
         d="m 230,410 h 70 v -70 h -70 z"
         id="path11973"
         inkscape:connector-curvature="0" /></clipPath><clipPath
       clipPathUnits="userSpaceOnUse"
       id="clipPath11993"><path
         d="m 230,340 h 70 v -70 h -70 z"
         id="path11991"
         inkscape:connector-curvature="0" /></clipPath><clipPath
       clipPathUnits="userSpaceOnUse"
       id="clipPath12011"><path
         d="m 230,270 h 70 v -70 h -70 z"
         id="path12009"
         inkscape:connector-curvature="0" /></clipPath><clipPath
       clipPathUnits="userSpaceOnUse"
       id="clipPath12029"><path
         d="m 230,200 h 70 v -70 h -70 z"
         id="path12027"
         inkscape:connector-curvature="0" /></clipPath><clipPath
       clipPathUnits="userSpaceOnUse"
       id="clipPath12047"><path
         d="m 230,130 h 70 V 60 h -70 z"
         id="path12045"
         inkscape:connector-curvature="0" /></clipPath><clipPath
       clipPathUnits="userSpaceOnUse"
       id="clipPath12065"><path
         d="m 230,60 h 70 v -70 h -70 z"
         id="path12063"
         inkscape:connector-curvature="0" /></clipPath><clipPath
       clipPathUnits="userSpaceOnUse"
       id="clipPath12079"><path
         d="m 160,550 h 70 v -70 h -70 z"
         id="path12077"
         inkscape:connector-curvature="0" /></clipPath><clipPath
       clipPathUnits="userSpaceOnUse"
       id="clipPath12091"><path
         d="m 160,480 h 70 v -70 h -70 z"
         id="path12089"
         inkscape:connector-curvature="0" /></clipPath><clipPath
       clipPathUnits="userSpaceOnUse"
       id="clipPath12109"><path
         d="m 160,410 h 70 v -70 h -70 z"
         id="path12107"
         inkscape:connector-curvature="0" /></clipPath><clipPath
       clipPathUnits="userSpaceOnUse"
       id="clipPath12127"><path
         d="m 160,340 h 70 v -70 h -70 z"
         id="path12125"
         inkscape:connector-curvature="0" /></clipPath><clipPath
       clipPathUnits="userSpaceOnUse"
       id="clipPath12145"><path
         d="m 160,270 h 70 v -70 h -70 z"
         id="path12143"
         inkscape:connector-curvature="0" /></clipPath><clipPath
       clipPathUnits="userSpaceOnUse"
       id="clipPath12163"><path
         d="m 160,200 h 70 v -70 h -70 z"
         id="path12161"
         inkscape:connector-curvature="0" /></clipPath><clipPath
       clipPathUnits="userSpaceOnUse"
       id="clipPath12181"><path
         d="m 160,130 h 70 V 60 h -70 z"
         id="path12179"
         inkscape:connector-curvature="0" /></clipPath><clipPath
       clipPathUnits="userSpaceOnUse"
       id="clipPath12199"><path
         d="m 160,60 h 70 v -70 h -70 z"
         id="path12197"
         inkscape:connector-curvature="0" /></clipPath><clipPath
       clipPathUnits="userSpaceOnUse"
       id="clipPath12213"><path
         d="m 90,550 h 70 V 480 H 90 Z"
         id="path12211"
         inkscape:connector-curvature="0" /></clipPath><clipPath
       clipPathUnits="userSpaceOnUse"
       id="clipPath12225"><path
         d="m 90,480 h 70 V 410 H 90 Z"
         id="path12223"
         inkscape:connector-curvature="0" /></clipPath><clipPath
       clipPathUnits="userSpaceOnUse"
       id="clipPath12243"><path
         d="m 90,410 h 70 V 340 H 90 Z"
         id="path12241"
         inkscape:connector-curvature="0" /></clipPath><clipPath
       clipPathUnits="userSpaceOnUse"
       id="clipPath12261"><path
         d="m 90,340 h 70 V 270 H 90 Z"
         id="path12259"
         inkscape:connector-curvature="0" /></clipPath><clipPath
       clipPathUnits="userSpaceOnUse"
       id="clipPath12279"><path
         d="m 90,270 h 70 V 200 H 90 Z"
         id="path12277"
         inkscape:connector-curvature="0" /></clipPath><clipPath
       clipPathUnits="userSpaceOnUse"
       id="clipPath12297"><path
         d="m 90,200 h 70 V 130 H 90 Z"
         id="path12295"
         inkscape:connector-curvature="0" /></clipPath><clipPath
       clipPathUnits="userSpaceOnUse"
       id="clipPath12315"><path
         d="m 90,130 h 70 V 60 H 90 Z"
         id="path12313"
         inkscape:connector-curvature="0" /></clipPath><clipPath
       clipPathUnits="userSpaceOnUse"
       id="clipPath12333"><path
         d="m 90,60 h 70 V -10 H 90 Z"
         id="path12331"
         inkscape:connector-curvature="0" /></clipPath><clipPath
       clipPathUnits="userSpaceOnUse"
       id="clipPath12347"><path
         d="M 20,550 H 90 V 480 H 20 Z"
         id="path12345"
         inkscape:connector-curvature="0" /></clipPath><clipPath
       clipPathUnits="userSpaceOnUse"
       id="clipPath12359"><path
         d="M 20,480 H 90 V 410 H 20 Z"
         id="path12357"
         inkscape:connector-curvature="0" /></clipPath><clipPath
       clipPathUnits="userSpaceOnUse"
       id="clipPath12377"><path
         d="M 20,410 H 90 V 340 H 20 Z"
         id="path12375"
         inkscape:connector-curvature="0" /></clipPath><clipPath
       clipPathUnits="userSpaceOnUse"
       id="clipPath12395"><path
         d="M 20,340 H 90 V 270 H 20 Z"
         id="path12393"
         inkscape:connector-curvature="0" /></clipPath><clipPath
       clipPathUnits="userSpaceOnUse"
       id="clipPath12413"><path
         d="M 20,270 H 90 V 200 H 20 Z"
         id="path12411"
         inkscape:connector-curvature="0" /></clipPath><clipPath
       clipPathUnits="userSpaceOnUse"
       id="clipPath12431"><path
         d="M 20,200 H 90 V 130 H 20 Z"
         id="path12429"
         inkscape:connector-curvature="0" /></clipPath><clipPath
       clipPathUnits="userSpaceOnUse"
       id="clipPath12449"><path
         d="M 20,130 H 90 V 60 H 20 Z"
         id="path12447"
         inkscape:connector-curvature="0" /></clipPath><clipPath
       clipPathUnits="userSpaceOnUse"
       id="clipPath12467"><path
         d="M 20,60 H 90 V -10 H 20 Z"
         id="path12465"
         inkscape:connector-curvature="0" /></clipPath><clipPath
       clipPathUnits="userSpaceOnUse"
       id="clipPath12481"><path
         d="M -50,550 H 20 V 480 H -50 Z"
         id="path12479"
         inkscape:connector-curvature="0" /></clipPath><clipPath
       clipPathUnits="userSpaceOnUse"
       id="clipPath12491"><path
         d="M -50,480 H 20 V 410 H -50 Z"
         id="path12489"
         inkscape:connector-curvature="0" /></clipPath><clipPath
       clipPathUnits="userSpaceOnUse"
       id="clipPath12503"><path
         d="M -50,410 H 20 V 340 H -50 Z"
         id="path12501"
         inkscape:connector-curvature="0" /></clipPath><clipPath
       clipPathUnits="userSpaceOnUse"
       id="clipPath12515"><path
         d="M -50,340 H 20 V 270 H -50 Z"
         id="path12513"
         inkscape:connector-curvature="0" /></clipPath><clipPath
       clipPathUnits="userSpaceOnUse"
       id="clipPath12527"><path
         d="M -50,270 H 20 V 200 H -50 Z"
         id="path12525"
         inkscape:connector-curvature="0" /></clipPath><clipPath
       clipPathUnits="userSpaceOnUse"
       id="clipPath12539"><path
         d="M -50,200 H 20 V 130 H -50 Z"
         id="path12537"
         inkscape:connector-curvature="0" /></clipPath><clipPath
       clipPathUnits="userSpaceOnUse"
       id="clipPath12551"><path
         d="M -50,130 H 20 V 60 h -70 z"
         id="path12549"
         inkscape:connector-curvature="0" /></clipPath><clipPath
       clipPathUnits="userSpaceOnUse"
       id="clipPath12563"><path
         d="M -50,60 H 20 V -10 H -50 Z"
         id="path12561"
         inkscape:connector-curvature="0" /></clipPath><clipPath
       clipPathUnits="userSpaceOnUse"
       id="clipPath12573"><path
         d="M 145.375,358.888 H 303.696 V 207.701 H 145.375 Z"
         id="path12571"
         inkscape:connector-curvature="0" /></clipPath><clipPath
       clipPathUnits="userSpaceOnUse"
       id="clipPath12577"><path
         d="m 151.045,351.801 h 152.651 v -144.1 H 151.045 Z"
         id="path12575"
         inkscape:connector-curvature="0" /></clipPath><clipPath
       clipPathUnits="userSpaceOnUse"
       id="clipPath12581"><path
         d="m 150.53,352.446 h 152.651 v -144.1 H 150.53 Z"
         id="path12579"
         inkscape:connector-curvature="0" /></clipPath><clipPath
       clipPathUnits="userSpaceOnUse"
       id="clipPath12585"><path
         d="M 150.014,353.09 H 302.665 V 208.99 H 150.014 Z"
         id="path12583"
         inkscape:connector-curvature="0" /></clipPath><clipPath
       clipPathUnits="userSpaceOnUse"
       id="clipPath12589"><path
         d="m 149.499,353.734 h 152.65 v -144.1 h -152.65 z"
         id="path12587"
         inkscape:connector-curvature="0" /></clipPath><clipPath
       clipPathUnits="userSpaceOnUse"
       id="clipPath12593"><path
         d="m 148.983,354.378 h 152.652 v -144.1 H 148.983 Z"
         id="path12591"
         inkscape:connector-curvature="0" /></clipPath><clipPath
       clipPathUnits="userSpaceOnUse"
       id="clipPath12597"><path
         d="M 148.468,355.022 H 301.119 V 210.923 H 148.468 Z"
         id="path12595"
         inkscape:connector-curvature="0" /></clipPath><clipPath
       clipPathUnits="userSpaceOnUse"
       id="clipPath12601"><path
         d="M 147.953,355.667 H 300.604 V 211.566 H 147.953 Z"
         id="path12599"
         inkscape:connector-curvature="0" /></clipPath><clipPath
       clipPathUnits="userSpaceOnUse"
       id="clipPath12605"><path
         d="m 147.438,356.311 h 152.65 v -144.1 h -152.65 z"
         id="path12603"
         inkscape:connector-curvature="0" /></clipPath><clipPath
       clipPathUnits="userSpaceOnUse"
       id="clipPath12609"><path
         d="M 146.922,356.956 H 299.573 V 212.855 H 146.922 Z"
         id="path12607"
         inkscape:connector-curvature="0" /></clipPath><clipPath
       clipPathUnits="userSpaceOnUse"
       id="clipPath12613"><path
         d="M 146.406,357.6 H 299.058 V 213.5 H 146.406 Z"
         id="path12611"
         inkscape:connector-curvature="0" /></clipPath><clipPath
       clipPathUnits="userSpaceOnUse"
       id="clipPath12617"><path
         d="m 145.891,358.244 h 152.651 v -144.1 H 145.891 Z"
         id="path12615"
         inkscape:connector-curvature="0" /></clipPath><clipPath
       clipPathUnits="userSpaceOnUse"
       id="clipPath12745"><path
         d="M 53.0723,307.275 H 223.562 V 144.633 H 53.0723 Z"
         id="path12743"
         inkscape:connector-curvature="0" /></clipPath><clipPath
       clipPathUnits="userSpaceOnUse"
       id="clipPath12749"><path
         d="M 60.1592,300.188 H 223.562 V 144.633 H 60.1592 Z"
         id="path12747"
         inkscape:connector-curvature="0" /></clipPath><clipPath
       clipPathUnits="userSpaceOnUse"
       id="clipPath12753"><path
         d="M 59.5146,300.833 H 222.917 V 145.276 H 59.5146 Z"
         id="path12751"
         inkscape:connector-curvature="0" /></clipPath><clipPath
       clipPathUnits="userSpaceOnUse"
       id="clipPath12757"><path
         d="M 58.8706,301.477 H 222.273 V 145.921 H 58.8706 Z"
         id="path12755"
         inkscape:connector-curvature="0" /></clipPath><clipPath
       clipPathUnits="userSpaceOnUse"
       id="clipPath12761"><path
         d="M 58.2266,302.121 H 221.629 V 146.565 H 58.2266 Z"
         id="path12759"
         inkscape:connector-curvature="0" /></clipPath><clipPath
       clipPathUnits="userSpaceOnUse"
       id="clipPath12765"><path
         d="M 57.582,302.766 H 220.985 V 147.209 H 57.582 Z"
         id="path12763"
         inkscape:connector-curvature="0" /></clipPath><clipPath
       clipPathUnits="userSpaceOnUse"
       id="clipPath12769"><path
         d="M 56.938,303.41 H 220.341 V 147.854 H 56.938 Z"
         id="path12767"
         inkscape:connector-curvature="0" /></clipPath><clipPath
       clipPathUnits="userSpaceOnUse"
       id="clipPath12773"><path
         d="M 56.2935,304.054 H 219.696 V 148.498 H 56.2935 Z"
         id="path12771"
         inkscape:connector-curvature="0" /></clipPath><clipPath
       clipPathUnits="userSpaceOnUse"
       id="clipPath12777"><path
         d="M 55.6494,304.698 H 219.052 V 149.142 H 55.6494 Z"
         id="path12775"
         inkscape:connector-curvature="0" /></clipPath><clipPath
       clipPathUnits="userSpaceOnUse"
       id="clipPath12781"><path
         d="M 55.0054,305.342 H 218.408 V 149.786 H 55.0054 Z"
         id="path12779"
         inkscape:connector-curvature="0" /></clipPath><clipPath
       clipPathUnits="userSpaceOnUse"
       id="clipPath12785"><path
         d="M 54.3608,305.987 H 217.764 V 150.431 H 54.3608 Z"
         id="path12783"
         inkscape:connector-curvature="0" /></clipPath><clipPath
       clipPathUnits="userSpaceOnUse"
       id="clipPath12789"><path
         d="M 53.7168,306.631 H 217.12 V 151.074 H 53.7168 Z"
         id="path12787"
         inkscape:connector-curvature="0" /></clipPath><clipPath
       clipPathUnits="userSpaceOnUse"
       id="clipPath12793"><path
         d="M 53.0723,307.275 H 216.475 V 151.719 H 53.0723 Z"
         id="path12791"
         inkscape:connector-curvature="0" /></clipPath><clipPath
       clipPathUnits="userSpaceOnUse"
       id="clipPath12929"><path
         d="M 313.99,360.8 H 458.266 V 203.239 H 313.99 Z"
         id="path12927"
         inkscape:connector-curvature="0" /></clipPath><clipPath
       clipPathUnits="userSpaceOnUse"
       id="clipPath12933"><path
         d="M 318.242,353.713 H 458.266 V 203.239 H 318.242 Z"
         id="path12931"
         inkscape:connector-curvature="0" /></clipPath><clipPath
       clipPathUnits="userSpaceOnUse"
       id="clipPath12937"><path
         d="M 317.855,354.357 H 457.879 V 203.883 H 317.855 Z"
         id="path12935"
         inkscape:connector-curvature="0" /></clipPath><clipPath
       clipPathUnits="userSpaceOnUse"
       id="clipPath12941"><path
         d="M 317.47,355.002 H 457.493 V 204.527 H 317.47 Z"
         id="path12939"
         inkscape:connector-curvature="0" /></clipPath><clipPath
       clipPathUnits="userSpaceOnUse"
       id="clipPath12945"><path
         d="M 317.083,355.646 H 457.106 V 205.172 H 317.083 Z"
         id="path12943"
         inkscape:connector-curvature="0" /></clipPath><clipPath
       clipPathUnits="userSpaceOnUse"
       id="clipPath12949"><path
         d="M 316.696,356.291 H 456.72 V 205.815 H 316.696 Z"
         id="path12947"
         inkscape:connector-curvature="0" /></clipPath><clipPath
       clipPathUnits="userSpaceOnUse"
       id="clipPath12953"><path
         d="M 316.31,356.935 H 456.333 V 206.46 H 316.31 Z"
         id="path12951"
         inkscape:connector-curvature="0" /></clipPath><clipPath
       clipPathUnits="userSpaceOnUse"
       id="clipPath12957"><path
         d="M 315.923,357.579 H 455.946 V 207.104 H 315.923 Z"
         id="path12955"
         inkscape:connector-curvature="0" /></clipPath><clipPath
       clipPathUnits="userSpaceOnUse"
       id="clipPath12961"><path
         d="M 315.536,358.223 H 455.56 V 207.748 H 315.536 Z"
         id="path12959"
         inkscape:connector-curvature="0" /></clipPath><clipPath
       clipPathUnits="userSpaceOnUse"
       id="clipPath12965"><path
         d="M 315.15,358.867 H 455.174 V 208.393 H 315.15 Z"
         id="path12963"
         inkscape:connector-curvature="0" /></clipPath><clipPath
       clipPathUnits="userSpaceOnUse"
       id="clipPath12969"><path
         d="M 314.764,359.512 H 454.787 V 209.037 H 314.764 Z"
         id="path12967"
         inkscape:connector-curvature="0" /></clipPath><clipPath
       clipPathUnits="userSpaceOnUse"
       id="clipPath12973"><path
         d="M 314.377,360.156 H 454.4 V 209.681 H 314.377 Z"
         id="path12971"
         inkscape:connector-curvature="0" /></clipPath><clipPath
       clipPathUnits="userSpaceOnUse"
       id="clipPath13101"><path
         d="M 206.544,290.753 H 358.217 V 139.2 H 206.544 Z"
         id="path13099"
         inkscape:connector-curvature="0" /></clipPath><clipPath
       clipPathUnits="userSpaceOnUse"
       id="clipPath13105"><path
         d="M 212.213,285.084 H 358.217 V 139.2 H 212.213 Z"
         id="path13103"
         inkscape:connector-curvature="0" /></clipPath><clipPath
       clipPathUnits="userSpaceOnUse"
       id="clipPath13109"><path
         d="M 211.698,285.6 H 357.702 V 139.716 H 211.698 Z"
         id="path13107"
         inkscape:connector-curvature="0" /></clipPath><clipPath
       clipPathUnits="userSpaceOnUse"
       id="clipPath13113"><path
         d="M 211.183,286.115 H 357.187 V 140.23 H 211.183 Z"
         id="path13111"
         inkscape:connector-curvature="0" /></clipPath><clipPath
       clipPathUnits="userSpaceOnUse"
       id="clipPath13117"><path
         d="M 210.667,286.63 H 356.671 V 140.746 H 210.667 Z"
         id="path13115"
         inkscape:connector-curvature="0" /></clipPath><clipPath
       clipPathUnits="userSpaceOnUse"
       id="clipPath13121"><path
         d="M 210.152,287.146 H 356.156 V 141.262 H 210.152 Z"
         id="path13119"
         inkscape:connector-curvature="0" /></clipPath><clipPath
       clipPathUnits="userSpaceOnUse"
       id="clipPath13125"><path
         d="M 209.637,287.661 H 355.641 V 141.777 H 209.637 Z"
         id="path13123"
         inkscape:connector-curvature="0" /></clipPath><clipPath
       clipPathUnits="userSpaceOnUse"
       id="clipPath13129"><path
         d="M 209.121,288.177 H 355.125 V 142.292 H 209.121 Z"
         id="path13127"
         inkscape:connector-curvature="0" /></clipPath><clipPath
       clipPathUnits="userSpaceOnUse"
       id="clipPath13133"><path
         d="M 208.605,288.692 H 354.609 V 142.808 H 208.605 Z"
         id="path13131"
         inkscape:connector-curvature="0" /></clipPath><clipPath
       clipPathUnits="userSpaceOnUse"
       id="clipPath13137"><path
         d="M 208.09,289.208 H 354.094 V 143.323 H 208.09 Z"
         id="path13135"
         inkscape:connector-curvature="0" /></clipPath><clipPath
       clipPathUnits="userSpaceOnUse"
       id="clipPath13141"><path
         d="M 207.575,289.723 H 353.579 V 143.839 H 207.575 Z"
         id="path13139"
         inkscape:connector-curvature="0" /></clipPath><clipPath
       clipPathUnits="userSpaceOnUse"
       id="clipPath13145"><path
         d="M 207.06,290.238 H 353.063 V 144.354 H 207.06 Z"
         id="path13143"
         inkscape:connector-curvature="0" /></clipPath></defs><sodipodi:namedview
     pagecolor="#ffffff"
     bordercolor="#666666"
     borderopacity="1"
     objecttolerance="10"
     gridtolerance="10"
     guidetolerance="10"
     inkscape:pageopacity="0"
     inkscape:pageshadow="2"
     inkscape:window-width="1920"
     inkscape:window-height="1017"
     id="namedview11539"
     showgrid="false"
     inkscape:zoom="1.0435625"
     inkscape:cx="636.1057"
     inkscape:cy="84.638167"
     inkscape:window-x="3832"
     inkscape:window-y="-8"
     inkscape:window-maximized="1"
     inkscape:current-layer="g11545"
     fit-margin-top="0"
     fit-margin-left="0"
     fit-margin-right="0"
     fit-margin-bottom="0" /><g
     id="g11545"
     inkscape:groupmode="layer"
     inkscape:label="love-Valentine-publicdomainvectors.org"
     transform="matrix(1.3333333,0,0,-1.3333333,619.18124,535.68725)"><g
       id="g3181"><g
         transform="translate(-517.45824,40.965444)"
         id="g12567"><g
           id="g12569" /><g
           id="g12733"><g
             id="g12731"
             clip-path="url(#clipPath12573)"><g
               id="g12627"><g
                 id="g12619" /><g
                 id="g12625"><g
                   style="opacity:0"
                   id="g12623"
                   clip-path="url(#clipPath12577)"><path
                     inkscape:connector-curvature="0"
                     id="path12621"
                     style="fill:#ffffff;fill-opacity:1;fill-rule:nonzero;stroke:none"
                     d="m 289.69,337.79 -0.004,0.005 c -16.958,16.946 -43.569,18.514 -62.316,4.698 -18.745,13.818 -45.355,12.252 -62.309,-4.701 -18.688,-18.688 -18.688,-49.095 0,-67.783 l 62.308,-62.308 62.321,62.31 c 18.675,18.687 18.675,49.092 0,67.779" /></g></g></g><g
               id="g12637"><g
                 id="g12629" /><g
                 id="g12635"><g
                   style="opacity:0.09091193"
                   id="g12633"
                   clip-path="url(#clipPath12581)"><path
                     inkscape:connector-curvature="0"
                     id="path12631"
                     style="fill:#f7eff2;fill-opacity:1;fill-rule:nonzero;stroke:none"
                     d="m 289.175,338.435 -0.005,0.004 c -16.958,16.947 -43.568,18.515 -62.315,4.699 -18.746,13.818 -45.355,12.252 -62.31,-4.701 -18.687,-18.688 -18.687,-49.096 0,-67.784 l 62.309,-62.307 62.321,62.31 c 18.675,18.686 18.675,49.092 0,67.779" /></g></g></g><g
               id="g12647"><g
                 id="g12639" /><g
                 id="g12645"><g
                   style="opacity:0.18182403"
                   id="g12643"
                   clip-path="url(#clipPath12585)"><path
                     inkscape:connector-curvature="0"
                     id="path12641"
                     style="fill:#eedfe6;fill-opacity:1;fill-rule:nonzero;stroke:none"
                     d="m 288.659,339.079 -0.005,0.004 c -16.958,16.947 -43.568,18.515 -62.315,4.699 -18.745,13.818 -45.355,12.252 -62.309,-4.701 -18.688,-18.688 -18.688,-49.096 0,-67.784 l 62.308,-62.307 62.321,62.31 c 18.675,18.686 18.675,49.092 0,67.779" /></g></g></g><g
               id="g12657"><g
                 id="g12649" /><g
                 id="g12655"><g
                   style="opacity:0.27272004"
                   id="g12653"
                   clip-path="url(#clipPath12589)"><path
                     inkscape:connector-curvature="0"
                     id="path12651"
                     style="fill:#e6ced9;fill-opacity:1;fill-rule:nonzero;stroke:none"
                     d="m 288.144,339.723 -0.005,0.005 c -16.958,16.946 -43.568,18.514 -62.315,4.698 -18.745,13.818 -45.355,12.252 -62.309,-4.701 -18.688,-18.688 -18.688,-49.095 0,-67.783 l 62.308,-62.308 62.321,62.31 c 18.674,18.687 18.674,49.092 0,67.779" /></g></g></g><g
               id="g12667"><g
                 id="g12659" /><g
                 id="g12665"><g
                   style="opacity:0.36363202"
                   id="g12663"
                   clip-path="url(#clipPath12593)"><path
                     inkscape:connector-curvature="0"
                     id="path12661"
                     style="fill:#debecc;fill-opacity:1;fill-rule:nonzero;stroke:none"
                     d="m 287.629,340.367 -0.005,0.005 c -16.958,16.946 -43.569,18.514 -62.315,4.698 -18.746,13.818 -45.355,12.252 -62.31,-4.701 -18.687,-18.688 -18.687,-49.095 0,-67.783 l 62.309,-62.308 62.321,62.31 c 18.675,18.687 18.675,49.092 0,67.779" /></g></g></g><g
               id="g12677"><g
                 id="g12669" /><g
                 id="g12675"><g
                   style="opacity:0.45454401"
                   id="g12673"
                   clip-path="url(#clipPath12597)"><path
                     inkscape:connector-curvature="0"
                     id="path12671"
                     style="fill:#d5aebf;fill-opacity:1;fill-rule:nonzero;stroke:none"
                     d="m 287.113,341.011 -0.005,0.005 c -16.958,16.946 -43.568,18.514 -62.315,4.698 -18.745,13.818 -45.355,12.252 -62.309,-4.701 -18.688,-18.688 -18.688,-49.095 0,-67.783 l 62.308,-62.307 62.321,62.309 c 18.675,18.687 18.675,49.092 0,67.779" /></g></g></g><g
               id="g12687"><g
                 id="g12679" /><g
                 id="g12685"><g
                   style="opacity:0.54545599"
                   id="g12683"
                   clip-path="url(#clipPath12601)"><path
                     inkscape:connector-curvature="0"
                     id="path12681"
                     style="fill:#cd9eb3;fill-opacity:1;fill-rule:nonzero;stroke:none"
                     d="m 286.598,341.656 -0.005,0.005 c -16.958,16.946 -43.569,18.514 -62.315,4.698 -18.746,13.818 -45.355,12.252 -62.31,-4.701 -18.687,-18.688 -18.687,-49.095 0,-67.783 l 62.309,-62.309 62.321,62.311 c 18.674,18.686 18.674,49.092 0,67.779" /></g></g></g><g
               id="g12697"><g
                 id="g12689" /><g
                 id="g12695"><g
                   style="opacity:0.63636798"
                   id="g12693"
                   clip-path="url(#clipPath12605)"><path
                     inkscape:connector-curvature="0"
                     id="path12691"
                     style="fill:#c48ea6;fill-opacity:1;fill-rule:nonzero;stroke:none"
                     d="m 286.082,342.3 -0.005,0.005 c -16.958,16.946 -43.568,18.514 -62.314,4.698 -18.746,13.818 -45.355,12.252 -62.31,-4.701 -18.687,-18.688 -18.687,-49.095 0,-67.783 l 62.309,-62.308 62.32,62.31 c 18.675,18.687 18.675,49.092 0,67.779" /></g></g></g><g
               id="g12707"><g
                 id="g12699" /><g
                 id="g12705"><g
                   style="opacity:0.72728002"
                   id="g12703"
                   clip-path="url(#clipPath12609)"><path
                     inkscape:connector-curvature="0"
                     id="path12701"
                     style="fill:#bc7e99;fill-opacity:1;fill-rule:nonzero;stroke:none"
                     d="m 285.566,342.944 -0.003,0.005 c -16.959,16.947 -43.569,18.514 -62.316,4.698 -18.746,13.818 -45.355,12.252 -62.309,-4.701 -18.688,-18.688 -18.688,-49.095 0,-67.783 l 62.308,-62.308 62.32,62.311 c 18.676,18.686 18.676,49.091 0,67.778" /></g></g></g><g
               id="g12717"><g
                 id="g12709" /><g
                 id="g12715"><g
                   style="opacity:0.81817597"
                   id="g12713"
                   clip-path="url(#clipPath12613)"><path
                     inkscape:connector-curvature="0"
                     id="path12711"
                     style="fill:#b46d8c;fill-opacity:1;fill-rule:nonzero;stroke:none"
                     d="m 285.052,343.588 -0.005,0.005 c -16.958,16.947 -43.568,18.514 -62.316,4.699 -18.745,13.817 -45.355,12.251 -62.309,-4.702 -18.688,-18.688 -18.688,-49.095 0,-67.783 l 62.308,-62.307 62.322,62.31 c 18.675,18.686 18.675,49.091 0,67.778" /></g></g></g><g
               id="g12727"><g
                 id="g12719" /><g
                 id="g12725"><g
                   style="opacity:0.90908802"
                   id="g12723"
                   clip-path="url(#clipPath12617)"><path
                     inkscape:connector-curvature="0"
                     id="path12721"
                     style="fill:#ab5d80;fill-opacity:1;fill-rule:nonzero;stroke:none"
                     d="m 284.536,344.232 -0.005,0.005 c -16.958,16.947 -43.568,18.514 -62.315,4.699 -18.745,13.817 -45.355,12.252 -62.309,-4.702 -18.688,-18.688 -18.688,-49.095 0,-67.783 l 62.308,-62.307 62.321,62.31 c 18.675,18.686 18.675,49.091 0,67.778" /></g></g></g><path
               inkscape:connector-curvature="0"
               id="path12729"
               style="fill:#a34d73;fill-opacity:1;fill-rule:nonzero;stroke:none"
               d="m 284.021,344.877 -0.005,0.005 c -16.958,16.946 -43.569,18.514 -62.315,4.698 -18.746,13.818 -45.355,12.252 -62.31,-4.701 -18.687,-18.688 -18.687,-49.095 0,-67.783 l 62.309,-62.308 62.321,62.31 c 18.674,18.687 18.674,49.092 0,67.779" /></g></g></g><path
         inkscape:connector-curvature="0"
         id="path12735"
         style="fill:none;stroke:#fffad5;stroke-width:20;stroke-linecap:butt;stroke-linejoin:miter;stroke-miterlimit:10;stroke-dasharray:none;stroke-opacity:1"
         d="m -240.51124,378.77344 c -14.812,14.803 -38.827,14.803 -53.64,0 l -1.607,-1.606 -1.606,1.606 c -14.813,14.803 -38.828,14.803 -53.631,0 -14.814,-14.813 -14.814,-38.828 0,-53.641 l 1.606,-1.606 53.631,-53.631 53.642,53.631 1.605,1.606 c 14.804,14.813 14.804,38.828 0,53.641 z" /><path
         inkscape:connector-curvature="0"
         id="path12737"
         style="fill:#e74c3c;fill-opacity:1;fill-rule:nonzero;stroke:none"
         d="m -240.51124,378.77344 c -14.812,14.803 -38.827,14.803 -53.64,0 l -1.607,-1.606 -1.606,1.606 c -14.813,14.803 -38.828,14.803 -53.631,0 -14.814,-14.813 -14.814,-38.828 0,-53.641 l 1.606,-1.606 53.631,-53.631 53.642,53.631 1.605,1.606 c 14.804,14.813 14.804,38.828 0,53.641" /><g
         transform="translate(-517.45824,40.965444)"
         id="g12739"><g
           id="g12741" /><g
           id="g12917"><g
             id="g12915"
             clip-path="url(#clipPath12745)"><g
               id="g12803"><g
                 id="g12795" /><g
                 id="g12801"><g
                   style="opacity:0"
                   id="g12799"
                   clip-path="url(#clipPath12749)"><path
                     inkscape:connector-curvature="0"
                     id="path12797"
                     style="fill:#ffffff;fill-opacity:1;fill-rule:nonzero;stroke:none"
                     d="m 220.172,235.904 c -1.714,3.957 -4.055,7.623 -6.956,10.898 l -0.005,0.006 c -3.053,3.439 -6.788,6.275 -11.072,8.416 -4.4,2.217 -9.157,3.373 -14.145,3.437 -4.884,0.058 -9.569,-0.876 -13.951,-2.775 -3.173,-1.376 -6.099,-3.251 -8.699,-5.578 -2.709,-2.429 -4.919,-5.294 -6.568,-8.519 l -0.132,-0.268 c -1.513,-3.189 -2.412,-6.48 -2.673,-9.792 -0.229,-2.958 0.017,-5.85 0.734,-8.611 0.155,-0.983 0.443,-1.96 0.866,-2.937 l 0.272,-0.628 c 2.387,-5.86 6.736,-10.451 12.581,-13.287 0.796,-0.387 1.603,-0.725 2.42,-1.015 l -8.13,-3.522 -27.962,64.533 9.61,4.163 -12.896,29.763 -73.307,-31.762 12.896,-29.764 8.258,3.578 27.961,-64.531 -8.381,-3.632 13.225,-29.444 81.577,35.347 c 5.7,2.469 10.594,5.667 14.543,9.504 3.913,3.797 7.013,8 9.193,12.447 2.707,5.448 4.096,11.246 4.131,17.231 0.032,5.844 -1.108,11.477 -3.39,16.742" /></g></g></g><g
               id="g12813"><g
                 id="g12805" /><g
                 id="g12811"><g
                   style="opacity:0.09091193"
                   id="g12809"
                   clip-path="url(#clipPath12753)"><path
                     inkscape:connector-curvature="0"
                     id="path12807"
                     style="fill:#f7eff2;fill-opacity:1;fill-rule:nonzero;stroke:none"
                     d="m 219.528,236.549 c -1.715,3.957 -4.055,7.623 -6.956,10.897 l -0.006,0.006 c -3.052,3.439 -6.788,6.276 -11.072,8.416 -4.4,2.217 -9.156,3.373 -14.144,3.437 -4.885,0.058 -9.569,-0.876 -13.951,-2.775 -3.174,-1.376 -6.099,-3.251 -8.699,-5.578 -2.71,-2.429 -4.92,-5.295 -6.569,-8.518 l -0.132,-0.268 c -1.513,-3.189 -2.412,-6.48 -2.672,-9.793 -0.23,-2.958 0.017,-5.85 0.733,-8.611 0.156,-0.983 0.443,-1.96 0.867,-2.938 l 0.271,-0.627 c 2.388,-5.859 6.737,-10.452 12.581,-13.287 0.796,-0.387 1.603,-0.724 2.42,-1.014 l -8.13,-3.523 -27.961,64.533 9.609,4.163 -12.895,29.764 -73.307,-31.763 12.895,-29.763 8.258,3.578 27.962,-64.532 -8.381,-3.631 13.225,-29.446 81.577,35.349 c 5.699,2.469 10.593,5.667 14.543,9.503 3.912,3.798 7.002,8.007 9.193,12.446 2.692,5.456 4.096,11.247 4.13,17.233 0.032,5.842 -1.107,11.475 -3.389,16.742" /></g></g></g><g
               id="g12823"><g
                 id="g12815" /><g
                 id="g12821"><g
                   style="opacity:0.18182403"
                   id="g12819"
                   clip-path="url(#clipPath12757)"><path
                     inkscape:connector-curvature="0"
                     id="path12817"
                     style="fill:#eedfe6;fill-opacity:1;fill-rule:nonzero;stroke:none"
                     d="m 218.884,237.192 c -1.715,3.957 -4.055,7.624 -6.956,10.898 l -0.006,0.006 c -3.052,3.439 -6.788,6.276 -11.072,8.416 -4.4,2.217 -9.156,3.374 -14.144,3.437 -4.885,0.059 -9.569,-0.875 -13.951,-2.775 -3.174,-1.375 -6.099,-3.25 -8.699,-5.578 -2.71,-2.428 -4.92,-5.294 -6.569,-8.518 l -0.132,-0.268 c -1.513,-3.19 -2.412,-6.481 -2.672,-9.792 -0.23,-2.958 0.017,-5.85 0.733,-8.612 0.156,-0.982 0.443,-1.96 0.867,-2.937 l 0.271,-0.627 c 2.388,-5.86 6.737,-10.452 12.581,-13.287 0.796,-0.387 1.603,-0.725 2.42,-1.015 l -8.13,-3.522 -27.961,64.532 9.609,4.164 -12.895,29.763 -73.307,-31.763 12.895,-29.763 8.258,3.578 27.962,-64.532 -8.382,-3.631 13.226,-29.445 81.577,35.349 c 5.699,2.468 10.593,5.667 14.542,9.502 3.913,3.798 7.003,8.007 9.194,12.447 2.692,5.456 4.096,11.247 4.13,17.232 0.032,5.843 -1.107,11.476 -3.389,16.741" /></g></g></g><g
               id="g12833"><g
                 id="g12825" /><g
                 id="g12831"><g
                   style="opacity:0.27272004"
                   id="g12829"
                   clip-path="url(#clipPath12761)"><path
                     inkscape:connector-curvature="0"
                     id="path12827"
                     style="fill:#e6ced9;fill-opacity:1;fill-rule:nonzero;stroke:none"
                     d="m 218.239,237.837 c -1.714,3.957 -4.054,7.624 -6.955,10.897 l -0.006,0.006 c -3.052,3.439 -6.788,6.276 -11.072,8.416 -4.4,2.218 -9.156,3.374 -14.144,3.437 -4.885,0.059 -9.569,-0.875 -13.952,-2.775 -3.173,-1.375 -6.098,-3.25 -8.698,-5.578 -2.71,-2.428 -4.92,-5.294 -6.569,-8.517 l -0.132,-0.269 c -1.513,-3.189 -2.412,-6.48 -2.672,-9.792 -0.23,-2.958 0.017,-5.849 0.733,-8.611 0.156,-0.983 0.443,-1.96 0.867,-2.938 l 0.271,-0.627 c 2.388,-5.859 6.736,-10.452 12.581,-13.287 0.796,-0.386 1.603,-0.724 2.42,-1.014 l -8.13,-3.523 -27.961,64.532 9.609,4.164 -12.895,29.763 -73.307,-31.763 12.895,-29.762 8.258,3.578 27.962,-64.532 -8.382,-3.631 13.226,-29.446 81.577,35.349 c 5.699,2.469 10.593,5.667 14.542,9.503 3.913,3.798 7.002,8.006 9.193,12.446 2.693,5.456 4.097,11.247 4.131,17.233 0.032,5.842 -1.108,11.475 -3.39,16.741" /></g></g></g><g
               id="g12843"><g
                 id="g12835" /><g
                 id="g12841"><g
                   style="opacity:0.36363202"
                   id="g12839"
                   clip-path="url(#clipPath12765)"><path
                     inkscape:connector-curvature="0"
                     id="path12837"
                     style="fill:#debecc;fill-opacity:1;fill-rule:nonzero;stroke:none"
                     d="m 217.595,238.481 c -1.715,3.957 -4.055,7.623 -6.956,10.898 l -0.005,0.006 c -3.053,3.439 -6.788,6.275 -11.072,8.416 -4.4,2.217 -9.157,3.373 -14.145,3.437 -4.884,0.058 -9.569,-0.876 -13.951,-2.775 -3.174,-1.376 -6.099,-3.251 -8.699,-5.578 -2.709,-2.429 -4.919,-5.295 -6.568,-8.519 l -0.133,-0.267 c -1.512,-3.19 -2.411,-6.481 -2.672,-9.793 -0.229,-2.958 0.017,-5.85 0.733,-8.612 0.156,-0.982 0.444,-1.96 0.867,-2.937 l 0.272,-0.627 c 2.387,-5.859 6.736,-10.452 12.581,-13.287 0.796,-0.387 1.603,-0.725 2.42,-1.015 l -8.13,-3.522 -27.962,64.533 9.61,4.163 -12.896,29.764 -73.307,-31.763 12.896,-29.764 8.258,3.578 27.961,-64.532 -8.381,-3.631 13.225,-29.445 81.577,35.349 c 5.7,2.468 10.593,5.667 14.543,9.503 3.913,3.797 7.002,8.006 9.193,12.446 2.693,5.456 4.096,11.247 4.13,17.232 0.033,5.843 -1.107,11.476 -3.389,16.742" /></g></g></g><g
               id="g12853"><g
                 id="g12845" /><g
                 id="g12851"><g
                   style="opacity:0.45454401"
                   id="g12849"
                   clip-path="url(#clipPath12769)"><path
                     inkscape:connector-curvature="0"
                     id="path12847"
                     style="fill:#d5aebf;fill-opacity:1;fill-rule:nonzero;stroke:none"
                     d="m 216.951,239.126 c -1.715,3.956 -4.055,7.623 -6.956,10.897 l -0.005,0.006 c -3.053,3.439 -6.788,6.276 -11.073,8.416 -4.399,2.217 -9.156,3.373 -14.144,3.437 -4.884,0.058 -9.569,-0.876 -13.951,-2.775 -3.174,-1.376 -6.099,-3.251 -8.699,-5.578 -2.709,-2.428 -4.919,-5.295 -6.568,-8.518 l -0.133,-0.268 c -1.512,-3.19 -2.411,-6.481 -2.672,-9.793 -0.229,-2.958 0.017,-5.849 0.733,-8.611 0.156,-0.983 0.444,-1.96 0.867,-2.938 l 0.272,-0.627 c 2.387,-5.859 6.736,-10.452 12.581,-13.287 0.796,-0.386 1.603,-0.724 2.42,-1.014 l -8.13,-3.523 -27.962,64.533 9.61,4.163 -12.896,29.764 -73.307,-31.763 12.895,-29.763 8.259,3.578 27.961,-64.532 -8.381,-3.631 13.225,-29.445 81.577,35.348 c 5.7,2.469 10.593,5.667 14.543,9.503 3.913,3.798 7.002,8.007 9.193,12.446 2.692,5.456 4.096,11.247 4.13,17.233 0.033,5.843 -1.107,11.475 -3.389,16.742" /></g></g></g><g
               id="g12863"><g
                 id="g12855" /><g
                 id="g12861"><g
                   style="opacity:0.54545599"
                   id="g12859"
                   clip-path="url(#clipPath12773)"><path
                     inkscape:connector-curvature="0"
                     id="path12857"
                     style="fill:#cd9eb3;fill-opacity:1;fill-rule:nonzero;stroke:none"
                     d="m 216.307,239.77 c -1.715,3.957 -4.056,7.624 -6.956,10.897 l -0.006,0.006 c -3.053,3.439 -6.788,6.276 -11.072,8.416 -4.4,2.217 -9.156,3.373 -14.145,3.437 -4.884,0.058 -9.568,-0.876 -13.95,-2.775 -3.174,-1.376 -6.099,-3.251 -8.699,-5.578 -2.71,-2.428 -4.92,-5.294 -6.569,-8.518 l -0.132,-0.268 c -1.513,-3.19 -2.412,-6.481 -2.673,-9.792 -0.229,-2.958 0.018,-5.85 0.734,-8.612 0.156,-0.982 0.443,-1.96 0.867,-2.937 l 0.271,-0.627 c 2.388,-5.859 6.736,-10.452 12.581,-13.287 0.796,-0.387 1.603,-0.725 2.42,-1.015 l -8.13,-3.522 -27.961,64.532 9.609,4.164 -12.895,29.763 -73.308,-31.763 12.896,-29.763 8.258,3.578 27.962,-64.532 -8.382,-3.631 13.225,-29.445 81.578,35.349 c 5.699,2.468 10.593,5.667 14.542,9.503 3.913,3.797 7.003,8.005 9.193,12.446 2.693,5.456 4.097,11.247 4.131,17.232 0.032,5.843 -1.108,11.476 -3.389,16.742" /></g></g></g><g
               id="g12873"><g
                 id="g12865" /><g
                 id="g12871"><g
                   style="opacity:0.63636798"
                   id="g12869"
                   clip-path="url(#clipPath12777)"><path
                     inkscape:connector-curvature="0"
                     id="path12867"
                     style="fill:#c48ea6;fill-opacity:1;fill-rule:nonzero;stroke:none"
                     d="m 215.663,240.414 c -1.715,3.957 -4.056,7.623 -6.956,10.898 l -0.006,0.005 c -3.053,3.439 -6.788,6.276 -11.072,8.416 -4.4,2.218 -9.156,3.374 -14.145,3.437 -4.884,0.059 -9.568,-0.875 -13.95,-2.774 -3.174,-1.376 -6.099,-3.251 -8.7,-5.579 -2.709,-2.428 -4.919,-5.294 -6.568,-8.518 l -0.132,-0.268 c -1.513,-3.189 -2.412,-6.48 -2.673,-9.793 -0.229,-2.958 0.018,-5.849 0.734,-8.611 0.156,-0.982 0.443,-1.96 0.867,-2.938 l 0.271,-0.626 c 2.388,-5.86 6.736,-10.453 12.581,-13.288 0.796,-0.386 1.603,-0.724 2.42,-1.014 l -8.13,-3.523 -27.961,64.533 9.609,4.164 -12.895,29.763 -73.308,-31.762 12.896,-29.764 8.258,3.578 27.962,-64.532 -8.382,-3.631 13.225,-29.445 81.578,35.348 c 5.699,2.469 10.593,5.667 14.542,9.503 3.913,3.798 7.002,8.007 9.193,12.446 2.693,5.457 4.097,11.248 4.131,17.233 0.032,5.843 -1.108,11.475 -3.389,16.742" /></g></g></g><g
               id="g12883"><g
                 id="g12875" /><g
                 id="g12881"><g
                   style="opacity:0.72728002"
                   id="g12879"
                   clip-path="url(#clipPath12781)"><path
                     inkscape:connector-curvature="0"
                     id="path12877"
                     style="fill:#bc7e99;fill-opacity:1;fill-rule:nonzero;stroke:none"
                     d="m 215.019,241.059 c -1.715,3.957 -4.056,7.623 -6.956,10.897 l -0.006,0.005 c -3.053,3.439 -6.788,6.276 -11.072,8.416 -4.4,2.218 -9.156,3.374 -14.145,3.437 -4.884,0.059 -9.569,-0.875 -13.95,-2.774 -3.174,-1.376 -6.099,-3.251 -8.7,-5.579 -2.709,-2.428 -4.919,-5.294 -6.568,-8.518 l -0.132,-0.267 c -1.513,-3.19 -2.412,-6.481 -2.673,-9.793 -0.229,-2.958 0.017,-5.85 0.734,-8.612 0.155,-0.982 0.443,-1.959 0.866,-2.937 l 0.272,-0.627 c 2.388,-5.859 6.736,-10.452 12.581,-13.287 0.796,-0.387 1.603,-0.725 2.419,-1.015 l -8.129,-3.522 -27.961,64.533 9.609,4.163 -12.895,29.763 -73.308,-31.762 12.896,-29.764 8.258,3.579 27.962,-64.533 -8.382,-3.631 13.225,-29.445 81.578,35.349 c 5.699,2.469 10.593,5.667 14.542,9.503 3.913,3.798 7.002,8.007 9.193,12.446 2.693,5.456 4.096,11.247 4.131,17.232 0.031,5.843 -1.108,11.476 -3.389,16.743" /></g></g></g><g
               id="g12893"><g
                 id="g12885" /><g
                 id="g12891"><g
                   style="opacity:0.81817597"
                   id="g12889"
                   clip-path="url(#clipPath12785)"><path
                     inkscape:connector-curvature="0"
                     id="path12887"
                     style="fill:#b46d8c;fill-opacity:1;fill-rule:nonzero;stroke:none"
                     d="m 214.374,241.702 c -1.715,3.957 -4.055,7.624 -6.956,10.898 l -0.005,0.005 c -3.053,3.44 -6.788,6.277 -11.073,8.417 -4.4,2.217 -9.156,3.374 -14.144,3.437 -4.884,0.059 -9.569,-0.876 -13.951,-2.775 -3.174,-1.375 -6.099,-3.25 -8.699,-5.579 -2.71,-2.427 -4.92,-5.293 -6.568,-8.517 l -0.133,-0.269 c -1.512,-3.189 -2.411,-6.48 -2.672,-9.792 -0.23,-2.958 0.017,-5.849 0.733,-8.611 0.156,-0.982 0.444,-1.96 0.867,-2.937 l 0.271,-0.627 c 2.388,-5.86 6.737,-10.453 12.581,-13.288 0.796,-0.386 1.604,-0.724 2.42,-1.014 l -8.129,-3.523 -27.962,64.533 9.609,4.164 -12.895,29.763 -73.307,-31.763 12.895,-29.763 8.259,3.578 27.961,-64.532 -8.381,-3.631 13.225,-29.445 81.577,35.348 c 5.7,2.469 10.593,5.667 14.542,9.503 3.914,3.798 7.003,8.007 9.194,12.447 2.693,5.456 4.096,11.247 4.13,17.232 0.032,5.843 -1.107,11.476 -3.389,16.741" /></g></g></g><g
               id="g12903"><g
                 id="g12895" /><g
                 id="g12901"><g
                   style="opacity:0.90908802"
                   id="g12899"
                   clip-path="url(#clipPath12789)"><path
                     inkscape:connector-curvature="0"
                     id="path12897"
                     style="fill:#ab5d80;fill-opacity:1;fill-rule:nonzero;stroke:none"
                     d="m 213.73,242.347 c -1.715,3.957 -4.055,7.623 -6.956,10.897 l -0.005,0.006 c -3.053,3.439 -6.789,6.276 -11.073,8.416 -4.4,2.217 -9.156,3.374 -14.144,3.437 -4.885,0.059 -9.569,-0.875 -13.951,-2.775 -3.174,-1.375 -6.099,-3.25 -8.699,-5.578 -2.71,-2.428 -4.92,-5.294 -6.569,-8.519 l -0.132,-0.267 c -1.513,-3.19 -2.411,-6.481 -2.672,-9.792 -0.23,-2.958 0.017,-5.85 0.733,-8.612 0.156,-0.983 0.444,-1.96 0.867,-2.938 l 0.271,-0.626 c 2.388,-5.86 6.737,-10.453 12.581,-13.287 0.796,-0.387 1.603,-0.725 2.42,-1.016 l -8.13,-3.521 -27.961,64.532 9.609,4.164 -12.895,29.763 -73.307,-31.763 12.895,-29.763 8.259,3.579 27.961,-64.533 -8.381,-3.631 13.225,-29.446 81.577,35.349 c 5.7,2.47 10.593,5.667 14.542,9.503 3.913,3.799 7.003,8.007 9.194,12.446 2.692,5.456 4.096,11.247 4.13,17.233 0.032,5.842 -1.107,11.475 -3.389,16.742" /></g></g></g><g
               id="g12913"><g
                 id="g12905" /><g
                 id="g12911"><g
                   id="g12909"
                   clip-path="url(#clipPath12793)"><path
                     inkscape:connector-curvature="0"
                     id="path12907"
                     style="fill:#a34d73;fill-opacity:1;fill-rule:nonzero;stroke:none"
                     d="m 213.085,242.991 c -1.714,3.957 -4.055,7.623 -6.956,10.897 l -0.005,0.006 c -3.053,3.439 -6.788,6.276 -11.072,8.416 -4.4,2.217 -9.156,3.374 -14.145,3.437 -4.884,0.059 -9.569,-0.875 -13.95,-2.775 -3.174,-1.375 -6.1,-3.25 -8.7,-5.578 -2.709,-2.428 -4.919,-5.294 -6.568,-8.518 l -0.132,-0.268 c -1.513,-3.189 -2.412,-6.48 -2.673,-9.793 -0.229,-2.958 0.017,-5.849 0.734,-8.611 0.155,-0.982 0.443,-1.96 0.866,-2.937 l 0.272,-0.627 c 2.388,-5.86 6.736,-10.452 12.581,-13.287 0.796,-0.387 1.603,-0.725 2.42,-1.015 l -8.13,-3.523 -27.961,64.533 9.609,4.164 -12.896,29.763 -73.307,-31.763 12.896,-29.763 8.258,3.578 27.962,-64.532 -8.381,-3.631 13.224,-29.445 81.577,35.348 c 5.7,2.469 10.594,5.667 14.543,9.503 3.913,3.798 7.014,8.001 9.193,12.447 2.707,5.449 4.096,11.247 4.131,17.232 0.032,5.843 -1.108,11.476 -3.39,16.742" /></g></g></g></g></g></g><path
         inkscape:connector-curvature="0"
         id="path12919"
         style="fill:none;stroke:#fffad5;stroke-width:20;stroke-linecap:butt;stroke-linejoin:miter;stroke-miterlimit:10;stroke-dasharray:none;stroke-opacity:1"
         d="m -318.81324,288.22144 c 2.209,-2.492 3.964,-5.237 5.265,-8.241 1.736,-4.005 2.59,-8.241 2.565,-12.71 -0.026,-4.47 -1.056,-8.75 -3.087,-12.84 -1.704,-3.475 -4.107,-6.714 -7.202,-9.72 -3.097,-3.008 -6.949,-5.507 -11.552,-7.502 -6.007,-2.602 -12.038,-5.216 -18.093,-7.84 -6.058,-2.624 -12.139,-5.258 -18.244,-7.904 -6.107,-2.645 -12.188,-5.281 -18.244,-7.904 -6.057,-2.625 -12.037,-5.216 -17.943,-7.775 l -5.029,11.197 c 0.699,0.302 1.4,0.606 2.102,0.91 0.699,0.303 1.4,0.607 2.102,0.911 0.601,0.261 1.251,0.542 1.952,0.846 0.699,0.302 1.401,0.607 2.102,0.911 l -35.913,82.884 -8.258,-3.579 -4.944,11.412 54.955,23.812 4.945,-11.412 -9.61,-4.164 35.913,-82.884 c 2.302,0.997 4.579,1.984 6.832,2.96 2.252,0.976 4.528,1.962 6.831,2.96 2.302,0.998 4.58,1.984 6.832,2.961 2.253,0.976 4.529,1.962 6.832,2.96 0.7,0.303 1.391,0.631 2.07,0.985 0.678,0.353 1.325,0.781 1.94,1.287 3.8,2.477 6.783,5.881 8.952,10.209 2.165,4.327 2.223,8.722 0.173,13.184 -0.217,0.5 -0.481,1.04 -0.791,1.619 -0.312,0.578 -0.625,1.095 -0.941,1.555 -1.673,2.484 -3.81,4.47 -6.416,5.958 -2.605,1.485 -5.462,1.557 -8.564,0.214 -0.3,-0.131 -0.641,-0.31 -1.018,-0.532 -0.379,-0.225 -0.77,-0.422 -1.169,-0.594 -0.972,-0.779 -1.791,-1.7 -2.46,-2.762 -0.67,-1.065 -0.721,-2.245 -0.158,-3.546 0.304,-0.701 0.768,-1.154 1.392,-1.358 0.624,-0.206 1.285,-0.157 1.986,0.147 l 4.945,-11.411 c -4.305,-1.865 -8.301,-1.903 -11.989,-0.112 -3.691,1.79 -6.265,4.508 -7.725,8.156 -0.13,0.3 -0.25,0.575 -0.358,0.825 -0.108,0.249 -0.156,0.496 -0.143,0.741 -0.581,1.889 -0.788,3.877 -0.626,5.971 0.165,2.091 0.743,4.185 1.738,6.281 1.094,2.138 2.541,4.014 4.34,5.625 1.798,1.611 3.797,2.895 6.001,3.85 3.101,1.344 6.387,1.992 9.855,1.951 3.466,-0.044 6.72,-0.833 9.764,-2.368 3.187,-1.592 5.883,-3.634 8.093,-6.124 z" /><path
         inkscape:connector-curvature="0"
         id="path12921"
         style="fill:#00a388;fill-opacity:1;fill-rule:nonzero;stroke:none"
         d="m -318.81324,288.22144 c 2.209,-2.492 3.964,-5.237 5.265,-8.241 1.736,-4.005 2.59,-8.241 2.565,-12.71 -0.026,-4.47 -1.056,-8.75 -3.087,-12.84 -1.704,-3.475 -4.107,-6.714 -7.202,-9.72 -3.097,-3.008 -6.949,-5.507 -11.552,-7.502 -6.007,-2.602 -12.038,-5.216 -18.093,-7.84 -6.058,-2.624 -12.139,-5.258 -18.244,-7.904 -6.107,-2.645 -12.188,-5.281 -18.244,-7.904 -6.057,-2.625 -12.037,-5.216 -17.943,-7.775 l -5.029,11.197 c 0.699,0.302 1.4,0.606 2.102,0.91 0.699,0.303 1.4,0.607 2.102,0.911 0.601,0.261 1.251,0.542 1.952,0.846 0.699,0.302 1.401,0.607 2.102,0.911 l -35.913,82.884 -8.258,-3.579 -4.944,11.412 54.955,23.812 4.945,-11.412 -9.61,-4.164 35.913,-82.884 c 2.302,0.997 4.579,1.984 6.832,2.96 2.252,0.976 4.528,1.962 6.831,2.96 2.302,0.998 4.58,1.984 6.832,2.961 2.253,0.976 4.529,1.962 6.832,2.96 0.7,0.303 1.391,0.631 2.07,0.985 0.678,0.353 1.325,0.781 1.94,1.287 3.8,2.477 6.783,5.881 8.952,10.209 2.165,4.327 2.223,8.722 0.173,13.184 -0.217,0.5 -0.481,1.04 -0.791,1.619 -0.312,0.578 -0.625,1.095 -0.941,1.555 -1.673,2.484 -3.81,4.47 -6.416,5.958 -2.605,1.485 -5.462,1.557 -8.564,0.214 -0.3,-0.131 -0.641,-0.31 -1.018,-0.532 -0.379,-0.225 -0.77,-0.422 -1.169,-0.594 -0.972,-0.779 -1.791,-1.7 -2.46,-2.762 -0.67,-1.065 -0.721,-2.245 -0.158,-3.546 0.304,-0.701 0.768,-1.154 1.392,-1.358 0.624,-0.206 1.285,-0.157 1.986,0.147 l 4.945,-11.411 c -4.305,-1.865 -8.301,-1.903 -11.989,-0.112 -3.691,1.79 -6.265,4.508 -7.725,8.156 -0.13,0.3 -0.25,0.575 -0.358,0.825 -0.108,0.249 -0.156,0.496 -0.143,0.741 -0.581,1.889 -0.788,3.877 -0.626,5.971 0.165,2.091 0.743,4.185 1.738,6.281 1.094,2.138 2.541,4.014 4.34,5.625 1.798,1.611 3.797,2.895 6.001,3.85 3.101,1.344 6.387,1.992 9.855,1.951 3.466,-0.044 6.72,-0.833 9.764,-2.368 3.187,-1.592 5.883,-3.634 8.093,-6.124" /><g
         transform="translate(-517.45824,40.965444)"
         id="g12923"><g
           id="g12925" /><g
           id="g13089"><g
             id="g13087"
             clip-path="url(#clipPath12929)"><g
               id="g12983"><g
                 id="g12975" /><g
                 id="g12981"><g
                   style="opacity:0"
                   id="g12979"
                   clip-path="url(#clipPath12933)"><path
                     inkscape:connector-curvature="0"
                     id="path12977"
                     style="fill:#ffffff;fill-opacity:1;fill-rule:nonzero;stroke:none"
                     d="m 454.119,262.023 c -4.387,9.357 -12.431,15.311 -23.263,17.22 l -0.246,0.041 c -2.705,0.407 -5.329,0.55 -7.834,0.427 l 0.776,4.072 28.019,10.297 -15.121,41.903 -93.065,17.73 -6.072,-31.863 10.127,-1.93 -13.162,-69.087 -9.966,1.898 -6.07,-31.863 87.626,-16.694 c 3.275,-0.623 6.476,-0.935 9.58,-0.935 2.719,0 5.365,0.239 7.916,0.718 5.339,0.999 10.234,2.752 14.54,5.205 4.373,2.485 8.14,5.585 11.202,9.219 3.029,3.601 5.348,7.549 6.893,11.729 l 0.087,0.244 c 0.31,0.911 0.59,1.82 0.832,2.703 l 0.009,0.033 c 0.254,0.939 0.467,1.86 0.634,2.738 l 0.026,0.147 c 1.574,9.015 0.408,17.779 -3.468,26.048 m -59.684,-22.65 2.091,10.982 c 0.4,-3.453 1.501,-6.829 3.284,-10.001 0.411,-0.735 0.895,-1.504 1.462,-2.285 z" /></g></g></g><g
               id="g12993"><g
                 id="g12985" /><g
                 id="g12991"><g
                   style="opacity:0.09091193"
                   id="g12989"
                   clip-path="url(#clipPath12937)"><path
                     inkscape:connector-curvature="0"
                     id="path12987"
                     style="fill:#f7eff2;fill-opacity:1;fill-rule:nonzero;stroke:none"
                     d="m 453.732,262.667 c -4.386,9.357 -12.43,15.312 -23.262,17.22 l -0.246,0.041 c -2.705,0.407 -5.329,0.551 -7.834,0.427 l 0.775,4.072 28.02,10.297 -15.122,41.903 -93.065,17.73 -6.072,-31.863 10.128,-1.93 -13.162,-69.087 -9.967,1.898 -6.07,-31.863 87.626,-16.694 c 3.275,-0.624 6.476,-0.935 9.581,-0.935 2.718,0 5.364,0.239 7.916,0.719 5.338,0.998 10.233,2.751 14.54,5.204 4.373,2.486 8.139,5.585 11.202,9.218 3.028,3.603 5.347,7.549 6.892,11.731 l 0.087,0.243 c 0.31,0.911 0.59,1.82 0.832,2.703 l 0.009,0.033 c 0.254,0.939 0.467,1.861 0.634,2.739 l 0.026,0.146 c 1.574,9.016 0.408,17.779 -3.468,26.048 m -59.684,-22.649 2.092,10.981 c 0.399,-3.452 1.501,-6.828 3.283,-10.001 0.411,-0.734 0.895,-1.504 1.463,-2.284 z" /></g></g></g><g
               id="g13003"><g
                 id="g12995" /><g
                 id="g13001"><g
                   style="opacity:0.18182403"
                   id="g12999"
                   clip-path="url(#clipPath12941)"><path
                     inkscape:connector-curvature="0"
                     id="path12997"
                     style="fill:#eedfe6;fill-opacity:1;fill-rule:nonzero;stroke:none"
                     d="m 453.347,263.312 c -4.387,9.356 -12.431,15.311 -23.263,17.22 l -0.246,0.04 c -2.705,0.407 -5.329,0.551 -7.834,0.428 l 0.775,4.072 28.02,10.296 -15.121,41.903 -93.066,17.731 -6.072,-31.864 10.128,-1.929 -13.162,-69.087 -9.967,1.898 -6.069,-31.864 87.626,-16.693 c 3.274,-0.624 6.475,-0.936 9.58,-0.936 2.719,0 5.364,0.24 7.916,0.719 5.339,0.998 10.233,2.751 14.54,5.204 4.373,2.487 8.139,5.585 11.202,9.219 3.028,3.602 5.348,7.549 6.893,11.73 l 0.086,0.244 c 0.31,0.911 0.59,1.82 0.833,2.703 l 0.008,0.033 c 0.254,0.938 0.467,1.859 0.634,2.738 l 0.026,0.147 c 1.575,9.015 0.409,17.778 -3.467,26.048 m -59.685,-22.651 2.092,10.983 c 0.399,-3.454 1.501,-6.829 3.283,-10.002 0.411,-0.734 0.896,-1.503 1.463,-2.284 z" /></g></g></g><g
               id="g13013"><g
                 id="g13005" /><g
                 id="g13011"><g
                   style="opacity:0.27272004"
                   id="g13009"
                   clip-path="url(#clipPath12945)"><path
                     inkscape:connector-curvature="0"
                     id="path13007"
                     style="fill:#e6ced9;fill-opacity:1;fill-rule:nonzero;stroke:none"
                     d="m 452.96,263.956 c -4.387,9.357 -12.431,15.311 -23.263,17.22 l -0.246,0.04 c -2.705,0.408 -5.329,0.551 -7.834,0.428 l 0.776,4.072 28.019,10.296 -15.121,41.904 -93.065,17.73 -6.073,-31.864 10.128,-1.929 -13.162,-69.087 -9.967,1.898 -6.069,-31.863 87.626,-16.694 c 3.274,-0.624 6.476,-0.935 9.58,-0.935 2.719,0 5.364,0.239 7.916,0.719 5.339,0.998 10.233,2.751 14.54,5.204 4.373,2.486 8.14,5.585 11.202,9.218 3.029,3.603 5.348,7.549 6.893,11.731 l 0.087,0.243 c 0.309,0.911 0.59,1.82 0.832,2.703 l 0.009,0.033 c 0.253,0.939 0.466,1.86 0.633,2.739 l 0.027,0.146 c 1.574,9.016 0.408,17.779 -3.468,26.048 m -59.685,-22.65 2.092,10.982 c 0.4,-3.453 1.501,-6.828 3.283,-10.002 0.412,-0.733 0.896,-1.503 1.463,-2.283 z" /></g></g></g><g
               id="g13023"><g
                 id="g13015" /><g
                 id="g13021"><g
                   style="opacity:0.36363202"
                   id="g13019"
                   clip-path="url(#clipPath12949)"><path
                     inkscape:connector-curvature="0"
                     id="path13017"
                     style="fill:#debecc;fill-opacity:1;fill-rule:nonzero;stroke:none"
                     d="m 452.573,264.6 c -4.386,9.357 -12.43,15.312 -23.262,17.22 l -0.247,0.04 c -2.705,0.408 -5.329,0.552 -7.834,0.428 l 0.776,4.072 28.019,10.297 -15.121,41.903 -93.065,17.731 -6.072,-31.865 10.128,-1.929 -13.163,-69.087 -9.966,1.898 -6.07,-31.864 87.626,-16.693 c 3.275,-0.624 6.476,-0.936 9.58,-0.936 2.719,0 5.365,0.24 7.916,0.719 5.339,0.998 10.234,2.751 14.54,5.204 4.373,2.487 8.14,5.585 11.203,9.219 3.028,3.603 5.347,7.549 6.892,11.731 l 0.087,0.243 c 0.31,0.911 0.59,1.82 0.832,2.703 l 0.009,0.033 c 0.254,0.938 0.467,1.86 0.634,2.738 l 0.026,0.147 c 1.574,9.015 0.408,17.779 -3.468,26.048 m -59.684,-22.65 2.091,10.982 c 0.4,-3.453 1.501,-6.828 3.284,-10.001 0.411,-0.735 0.895,-1.504 1.463,-2.285 z" /></g></g></g><g
               id="g13033"><g
                 id="g13025" /><g
                 id="g13031"><g
                   style="opacity:0.45454401"
                   id="g13029"
                   clip-path="url(#clipPath12953)"><path
                     inkscape:connector-curvature="0"
                     id="path13027"
                     style="fill:#d5aebf;fill-opacity:1;fill-rule:nonzero;stroke:none"
                     d="m 452.187,265.244 c -4.387,9.357 -12.431,15.312 -23.263,17.22 l -0.246,0.041 c -2.705,0.407 -5.329,0.551 -7.834,0.427 l 0.775,4.072 28.02,10.297 -15.121,41.903 -93.066,17.731 -6.072,-31.864 10.128,-1.929 -13.162,-69.088 -9.967,1.898 -6.069,-31.863 87.626,-16.693 c 3.274,-0.625 6.475,-0.936 9.58,-0.936 2.718,0 5.364,0.239 7.916,0.719 5.339,0.998 10.233,2.751 14.54,5.204 4.373,2.486 8.139,5.585 11.202,9.219 3.028,3.602 5.347,7.548 6.892,11.73 l 0.087,0.243 c 0.31,0.911 0.59,1.821 0.832,2.703 l 0.009,0.034 c 0.254,0.938 0.467,1.86 0.634,2.738 l 0.026,0.146 c 1.575,9.016 0.409,17.779 -3.467,26.048 m -59.685,-22.65 2.092,10.982 c 0.399,-3.452 1.501,-6.828 3.283,-10.002 0.411,-0.733 0.895,-1.503 1.463,-2.283 z" /></g></g></g><g
               id="g13043"><g
                 id="g13035" /><g
                 id="g13041"><g
                   style="opacity:0.54545599"
                   id="g13039"
                   clip-path="url(#clipPath12957)"><path
                     inkscape:connector-curvature="0"
                     id="path13037"
                     style="fill:#cd9eb3;fill-opacity:1;fill-rule:nonzero;stroke:none"
                     d="m 451.8,265.888 c -4.387,9.357 -12.431,15.312 -23.263,17.22 l -0.246,0.041 c -2.705,0.407 -5.329,0.551 -7.834,0.427 l 0.775,4.072 28.02,10.297 -15.121,41.903 -93.066,17.731 -6.072,-31.864 10.128,-1.929 -13.162,-69.088 -9.967,1.898 -6.069,-31.863 87.626,-16.693 c 3.274,-0.624 6.475,-0.936 9.58,-0.936 2.719,0 5.364,0.24 7.916,0.719 5.339,0.998 10.233,2.751 14.54,5.204 4.373,2.487 8.14,5.585 11.202,9.219 3.028,3.603 5.348,7.549 6.893,11.731 l 0.087,0.243 c 0.309,0.911 0.589,1.82 0.832,2.703 l 0.008,0.033 c 0.254,0.939 0.467,1.859 0.634,2.738 l 0.027,0.147 c 1.574,9.015 0.408,17.778 -3.468,26.047 m -59.685,-22.65 2.092,10.982 c 0.399,-3.452 1.501,-6.827 3.283,-10.001 0.411,-0.734 0.896,-1.503 1.463,-2.283 z" /></g></g></g><g
               id="g13053"><g
                 id="g13045" /><g
                 id="g13051"><g
                   style="opacity:0.63636798"
                   id="g13049"
                   clip-path="url(#clipPath12961)"><path
                     inkscape:connector-curvature="0"
                     id="path13047"
                     style="fill:#c48ea6;fill-opacity:1;fill-rule:nonzero;stroke:none"
                     d="m 451.414,266.533 c -4.388,9.357 -12.432,15.311 -23.264,17.22 l -0.246,0.04 c -2.705,0.408 -5.328,0.551 -7.834,0.428 l 0.776,4.072 28.019,10.296 -15.121,41.904 -93.064,17.73 -6.074,-31.864 10.128,-1.929 -13.162,-69.087 -9.967,1.898 -6.069,-31.864 87.626,-16.693 c 3.276,-0.624 6.477,-0.936 9.58,-0.936 2.719,0 5.364,0.239 7.916,0.719 5.339,0.998 10.235,2.751 14.54,5.204 4.374,2.486 8.14,5.585 11.202,9.219 3.03,3.602 5.348,7.548 6.893,11.73 l 0.088,0.243 c 0.308,0.911 0.589,1.821 0.832,2.703 l 0.008,0.034 c 0.254,0.938 0.467,1.86 0.634,2.738 l 0.026,0.146 c 1.574,9.016 0.408,17.78 -3.467,26.049 m -59.685,-22.65 2.091,10.982 c 0.4,-3.453 1.502,-6.829 3.284,-10.002 0.411,-0.734 0.895,-1.504 1.462,-2.284 z" /></g></g></g><g
               id="g13063"><g
                 id="g13055" /><g
                 id="g13061"><g
                   style="opacity:0.72728002"
                   id="g13059"
                   clip-path="url(#clipPath12965)"><path
                     inkscape:connector-curvature="0"
                     id="path13057"
                     style="fill:#bc7e99;fill-opacity:1;fill-rule:nonzero;stroke:none"
                     d="m 451.027,267.177 c -4.386,9.357 -12.43,15.311 -23.262,17.22 l -0.246,0.041 c -2.706,0.407 -5.33,0.55 -7.834,0.427 l 0.775,4.072 28.019,10.296 -15.121,41.904 -93.065,17.73 -6.072,-31.864 10.128,-1.929 -13.162,-69.087 -9.967,1.898 -6.07,-31.864 87.626,-16.693 c 3.275,-0.624 6.476,-0.935 9.58,-0.935 2.719,0 5.365,0.239 7.916,0.718 5.339,0.998 10.234,2.751 14.541,5.204 4.373,2.487 8.139,5.585 11.202,9.219 3.028,3.603 5.347,7.549 6.892,11.731 l 0.087,0.243 c 0.31,0.911 0.59,1.82 0.832,2.703 l 0.009,0.033 c 0.254,0.939 0.467,1.86 0.634,2.738 l 0.026,0.147 c 1.574,9.016 0.408,17.779 -3.468,26.048 m -59.684,-22.65 2.092,10.982 c 0.399,-3.453 1.501,-6.828 3.283,-10.001 0.411,-0.735 0.895,-1.504 1.463,-2.284 z" /></g></g></g><g
               id="g13073"><g
                 id="g13065" /><g
                 id="g13071"><g
                   style="opacity:0.81817597"
                   id="g13069"
                   clip-path="url(#clipPath12969)"><path
                     inkscape:connector-curvature="0"
                     id="path13067"
                     style="fill:#b46d8c;fill-opacity:1;fill-rule:nonzero;stroke:none"
                     d="m 450.641,267.821 c -4.387,9.357 -12.431,15.312 -23.263,17.221 l -0.246,0.04 c -2.705,0.407 -5.329,0.551 -7.834,0.427 l 0.775,4.072 28.02,10.297 -15.121,41.903 -93.066,17.731 -6.072,-31.865 10.128,-1.928 -13.162,-69.088 -9.967,1.898 -6.069,-31.863 87.626,-16.693 c 3.274,-0.624 6.475,-0.936 9.58,-0.936 2.718,0 5.364,0.239 7.916,0.719 5.339,0.998 10.233,2.751 14.54,5.204 4.373,2.486 8.139,5.585 11.202,9.219 3.028,3.602 5.348,7.549 6.893,11.73 l 0.086,0.243 c 0.31,0.911 0.59,1.821 0.832,2.703 l 0.009,0.034 c 0.254,0.938 0.467,1.859 0.634,2.738 l 0.026,0.146 c 1.575,9.016 0.409,17.779 -3.467,26.048 m -59.685,-22.65 2.092,10.982 c 0.399,-3.452 1.501,-6.828 3.283,-10.002 0.411,-0.733 0.896,-1.503 1.463,-2.283 z" /></g></g></g><g
               id="g13083"><g
                 id="g13075" /><g
                 id="g13081"><g
                   style="opacity:0.90908802"
                   id="g13079"
                   clip-path="url(#clipPath12973)"><path
                     inkscape:connector-curvature="0"
                     id="path13077"
                     style="fill:#ab5d80;fill-opacity:1;fill-rule:nonzero;stroke:none"
                     d="m 450.254,268.465 c -4.387,9.357 -12.431,15.312 -23.263,17.221 l -0.246,0.04 c -2.705,0.407 -5.329,0.551 -7.834,0.427 l 0.776,4.073 28.019,10.296 -15.121,41.903 -93.065,17.731 -6.073,-31.864 10.128,-1.929 -13.162,-69.088 -9.967,1.898 -6.069,-31.863 87.626,-16.693 c 3.274,-0.624 6.476,-0.936 9.58,-0.936 2.719,0 5.364,0.239 7.916,0.719 5.339,0.997 10.233,2.751 14.54,5.204 4.373,2.486 8.14,5.584 11.202,9.218 3.029,3.604 5.348,7.55 6.893,11.731 l 0.087,0.244 c 0.309,0.91 0.59,1.82 0.832,2.703 l 0.009,0.033 c 0.253,0.939 0.466,1.86 0.633,2.738 l 0.027,0.147 c 1.574,9.015 0.408,17.778 -3.468,26.047 m -59.685,-22.65 2.092,10.982 c 0.4,-3.452 1.501,-6.828 3.283,-10.001 0.411,-0.734 0.896,-1.503 1.463,-2.284 z" /></g></g></g><path
               inkscape:connector-curvature="0"
               id="path13085"
               style="fill:#a34d73;fill-opacity:1;fill-rule:nonzero;stroke:none"
               d="m 449.867,269.109 c -4.387,9.357 -12.43,15.312 -23.263,17.221 l -0.246,0.04 c -2.705,0.407 -5.329,0.551 -7.834,0.427 l 0.776,4.073 28.019,10.296 -15.121,41.903 -93.065,17.731 -6.072,-31.864 10.127,-1.929 -13.162,-69.088 -9.966,1.898 -6.07,-31.863 87.626,-16.693 c 3.275,-0.624 6.476,-0.936 9.58,-0.936 2.719,0 5.365,0.239 7.916,0.719 5.339,0.998 10.234,2.751 14.54,5.204 4.373,2.486 8.14,5.585 11.202,9.219 3.029,3.602 5.348,7.549 6.893,11.73 l 0.087,0.243 c 0.31,0.912 0.59,1.821 0.832,2.704 l 0.009,0.033 c 0.254,0.938 0.467,1.86 0.634,2.738 l 0.026,0.147 c 1.574,9.015 0.408,17.778 -3.468,26.047 m -59.684,-22.649 2.091,10.981 c 0.4,-3.452 1.501,-6.828 3.284,-10.001 0.411,-0.734 0.895,-1.503 1.463,-2.284 z" /></g></g></g><path
         inkscape:connector-curvature="0"
         id="path13091"
         style="fill:none;stroke:#fffad5;stroke-width:20;stroke-linecap:butt;stroke-linejoin:miter;stroke-miterlimit:10;stroke-dasharray:none;stroke-opacity:1"
         d="m -74.437239,283.75344 c -0.187,-0.687 -0.406,-1.395 -0.654,-2.124 -1.15,-3.112 -2.872,-6.033 -5.167,-8.762 -2.298,-2.726 -5.127,-5.048 -8.489,-6.961 -3.364,-1.915 -7.178,-3.271 -11.437001,-4.068 -4.262,-0.8 -8.858,-0.727 -13.787,0.211 l -77.802,14.823 2.327,12.217 c 0.856,-0.163 1.688,-0.322 2.492,-0.475 0.804,-0.153 1.633,-0.311 2.491,-0.474 0.857,-0.164 1.689,-0.322 2.491,-0.476 0.805,-0.152 1.633,-0.31 2.493,-0.474 l 16.905,88.734 -10.128,1.929 2.328,12.217 77.643001,-14.792 9.812,-27.19 -11.643,-4.278 -7.410001,20.568 -20.093,3.828 -5.39,-28.291 7.716,-1.471 1.746,9.164 12.217,-2.328 -5.788,-30.382 -12.217,2.327 1.715,9.003 -7.717,1.469 -9.188,-48.224 c 2.251,-0.429 4.527,-0.862 6.832,-1.302 2.304,-0.438 4.581,-0.873 6.832,-1.302 2.251,-0.428 4.527,-0.862 6.832,-1.301 2.303,-0.439 4.581,-0.874 6.832,-1.302 3.429,-0.653 6.522,-0.742 9.278,-0.268 2.756001,0.474 5.251001,1.331 7.486001,2.571 1.745,1.001 3.248,2.185 4.509,3.556 1.261,1.369 2.258,2.819 2.993,4.344 0.229,0.623 0.453,1.219 0.674,1.787 0.218,0.568 0.391,1.175 0.513,1.818 0.102,0.536 0.187,1.131 0.256,1.785 0.068,0.653 0.099,1.255 0.096,1.814 0.014,2.995 -0.664,5.844 -2.036,8.549 -1.374,2.704 -3.666,4.365 -6.881,4.977 -0.43,0.082 -0.864,0.136 -1.302,0.164 -0.439,0.027 -0.884,0.028 -1.332,0.004 -1.221,0.009 -2.405,-0.236 -3.555001,-0.738 -1.153,-0.504 -1.86,-1.453 -2.124,-2.844 -0.144,-0.751 -0.015,-1.387 0.385,-1.906 0.402,-0.522 0.976,-0.852 1.727,-0.996 l -2.327,-12.217 c -4.61,0.879 -7.907,3.089 -9.898,6.633 -1.99,3.545 -2.618,7.247 -1.882,11.104 0.061,0.322 0.117,0.616 0.168,0.884 0.05,0.267 0.15,0.498 0.298,0.693 0.581,1.889 1.529,3.65 2.841,5.29 1.311,1.636 2.966,3.042 4.968,4.217 1.873,1.085 4.006,1.791 6.399,2.113 2.394001,0.319 4.992001,0.269 7.800001,-0.154 7.628,-1.344 12.944,-5.214 15.945,-11.616 3,-6.402 3.89,-13.098 2.67,-20.084 -0.122,-0.642 -0.277,-1.307 -0.463,-1.993 z" /><path
         inkscape:connector-curvature="0"
         id="path13093"
         style="fill:#bd4932;fill-opacity:1;fill-rule:nonzero;stroke:none"
         d="m -74.437239,283.75344 c -0.187,-0.687 -0.406,-1.395 -0.654,-2.124 -1.15,-3.112 -2.872,-6.033 -5.167,-8.762 -2.298,-2.726 -5.127,-5.048 -8.489,-6.961 -3.364,-1.915 -7.178,-3.271 -11.437001,-4.068 -4.262,-0.8 -8.858,-0.727 -13.787,0.211 l -77.802,14.823 2.327,12.217 c 0.856,-0.163 1.688,-0.322 2.492,-0.475 0.804,-0.153 1.633,-0.311 2.491,-0.474 0.857,-0.164 1.689,-0.322 2.491,-0.476 0.805,-0.152 1.633,-0.31 2.493,-0.474 l 16.905,88.734 -10.128,1.929 2.328,12.217 77.643001,-14.792 9.812,-27.19 -11.643,-4.278 -7.410001,20.568 -20.093,3.828 -5.39,-28.291 7.716,-1.471 1.746,9.164 12.217,-2.328 -5.788,-30.382 -12.217,2.327 1.715,9.003 -7.717,1.469 -9.188,-48.224 c 2.251,-0.429 4.527,-0.862 6.832,-1.302 2.304,-0.438 4.581,-0.873 6.832,-1.302 2.251,-0.428 4.527,-0.862 6.832,-1.301 2.303,-0.439 4.581,-0.874 6.832,-1.302 3.429,-0.653 6.522,-0.742 9.278,-0.268 2.756001,0.474 5.251001,1.331 7.486001,2.571 1.745,1.001 3.248,2.185 4.509,3.556 1.261,1.369 2.258,2.819 2.993,4.344 0.229,0.623 0.453,1.219 0.674,1.787 0.218,0.568 0.391,1.175 0.513,1.818 0.102,0.536 0.187,1.131 0.256,1.785 0.068,0.653 0.099,1.255 0.096,1.814 0.014,2.995 -0.664,5.844 -2.036,8.549 -1.374,2.704 -3.666,4.365 -6.881,4.977 -0.43,0.082 -0.864,0.136 -1.302,0.164 -0.439,0.027 -0.884,0.028 -1.332,0.004 -1.221,0.009 -2.405,-0.236 -3.555001,-0.738 -1.153,-0.504 -1.86,-1.453 -2.124,-2.844 -0.144,-0.751 -0.015,-1.387 0.385,-1.906 0.402,-0.522 0.976,-0.852 1.727,-0.996 l -2.327,-12.217 c -4.61,0.879 -7.907,3.089 -9.898,6.633 -1.99,3.545 -2.618,7.247 -1.882,11.104 0.061,0.322 0.117,0.616 0.168,0.884 0.05,0.267 0.15,0.498 0.298,0.693 0.581,1.889 1.529,3.65 2.841,5.29 1.311,1.636 2.966,3.042 4.968,4.217 1.873,1.085 4.006,1.791 6.399,2.113 2.394001,0.319 4.992001,0.269 7.800001,-0.154 7.628,-1.344 12.944,-5.214 15.945,-11.616 3,-6.402 3.89,-13.098 2.67,-20.084 -0.122,-0.642 -0.277,-1.307 -0.463,-1.993" /><g
         transform="translate(-517.45824,40.965444)"
         id="g13095"><g
           id="g13097" /><g
           id="g13261"><g
             id="g13259"
             clip-path="url(#clipPath13101)"><g
               id="g13155"><g
                 id="g13147" /><g
                 id="g13153"><g
                   style="opacity:0"
                   id="g13151"
                   clip-path="url(#clipPath13105)"><path
                     inkscape:connector-curvature="0"
                     id="path13149"
                     style="fill:#ffffff;fill-opacity:1;fill-rule:nonzero;stroke:none"
                     d="m 354.396,265.283 -0.003,0.007 c -2.614,5.521 -6.376,10.087 -11.186,13.576 -2.736,2.068 -5.784,3.643 -9.069,4.687 -3.206,1.016 -6.507,1.531 -9.812,1.531 -5.374,0 -10.526,-1.313 -15.31,-3.903 -4.997,-2.702 -9,-6.682 -11.897,-11.83 l -0.228,-0.432 c -0.187,-0.373 -0.364,-0.748 -0.53,-1.125 v 15.818 h -84.148 v -32.437 h 14.755 c 4.074,-6.937 8.139,-13.906 12.117,-20.78 5.013,-8.666 10.028,-17.361 15.043,-26.08 l 0.345,-0.555 c 0.048,-0.073 0.096,-0.15 0.144,-0.228 l 0.16,-0.474 0.482,-0.844 c 4.747,-8.31 9.633,-16.784 14.52,-25.186 4.861,-8.357 9.695,-16.632 14.503,-24.827 l 7.63,-13.001 51.723,69.361 c 5.054,6.781 8.778,13.508 11.067,19.994 2.333,6.608 3.515,12.958 3.515,18.874 0,6.479 -1.285,12.486 -3.821,17.854 m -60.118,-14.108 c 0.176,-0.981 0.408,-1.948 0.693,-2.903 l -1.555,2.903 z m 16.961,-21.637 5.516,-2.84 c -1.049,-1.374 -2.081,-2.732 -3.098,-4.074 -0.955,-1.26 -1.913,-2.554 -2.86,-3.866 l -10.593,19.756 c 2.968,-3.715 6.671,-6.729 11.035,-8.976" /></g></g></g><g
               id="g13165"><g
                 id="g13157" /><g
                 id="g13163"><g
                   style="opacity:0.09091193"
                   id="g13161"
                   clip-path="url(#clipPath13109)"><path
                     inkscape:connector-curvature="0"
                     id="path13159"
                     style="fill:#f7eff2;fill-opacity:1;fill-rule:nonzero;stroke:none"
                     d="m 353.881,265.798 -0.004,0.007 c -2.613,5.521 -6.41,10.041 -11.186,13.576 -2.756,2.041 -5.784,3.643 -9.069,4.687 -3.206,1.016 -6.507,1.532 -9.811,1.532 -5.374,0 -10.527,-1.314 -15.311,-3.904 -4.997,-2.701 -9,-6.682 -11.896,-11.83 l -0.229,-0.431 c -0.187,-0.373 -0.363,-0.749 -0.529,-1.125 v 15.817 H 211.698 V 251.69 h 14.755 c 4.074,-6.936 8.139,-13.906 12.117,-20.78 5.013,-8.666 10.028,-17.36 15.042,-26.079 l 0.345,-0.556 c 0.048,-0.073 0.097,-0.149 0.145,-0.227 l 0.16,-0.475 0.481,-0.844 c 4.747,-8.309 9.633,-16.784 14.522,-25.185 4.859,-8.357 9.693,-16.633 14.502,-24.827 l 7.629,-13.001 51.723,69.36 c 5.055,6.781 8.778,13.509 11.068,19.994 2.333,6.609 3.515,12.958 3.515,18.874 0,6.479 -1.286,12.486 -3.821,17.854 M 293.763,251.69 c 0.175,-0.981 0.407,-1.948 0.693,-2.902 l -1.556,2.902 z m 16.961,-21.636 5.515,-2.84 c -1.049,-1.374 -2.081,-2.733 -3.097,-4.074 -0.955,-1.26 -1.913,-2.554 -2.861,-3.867 l -10.593,19.756 c 2.968,-3.715 6.672,-6.728 11.036,-8.975" /></g></g></g><g
               id="g13175"><g
                 id="g13167" /><g
                 id="g13173"><g
                   style="opacity:0.18182403"
                   id="g13171"
                   clip-path="url(#clipPath13113)"><path
                     inkscape:connector-curvature="0"
                     id="path13169"
                     style="fill:#eedfe6;fill-opacity:1;fill-rule:nonzero;stroke:none"
                     d="m 353.365,266.313 -0.004,0.008 c -2.613,5.52 -6.41,10.04 -11.185,13.576 -2.756,2.041 -5.784,3.643 -9.07,4.687 -3.206,1.016 -6.506,1.531 -9.811,1.531 -5.374,0 -10.526,-1.314 -15.311,-3.903 -4.997,-2.702 -9,-6.682 -11.896,-11.831 l -0.229,-0.431 c -0.186,-0.373 -0.363,-0.748 -0.529,-1.125 v 15.818 h -84.147 v -32.437 h 14.755 c 4.074,-6.936 8.138,-13.906 12.117,-20.781 5.012,-8.666 10.027,-17.361 15.043,-26.079 l 0.343,-0.556 c 0.049,-0.073 0.097,-0.149 0.145,-0.227 l 0.16,-0.475 0.483,-0.844 c 4.746,-8.309 9.631,-16.784 14.52,-25.185 4.859,-8.358 9.693,-16.633 14.502,-24.828 l 7.63,-13.001 51.723,69.361 c 5.054,6.781 8.778,13.509 11.067,19.994 2.333,6.608 3.516,12.959 3.516,18.875 0,6.479 -1.287,12.486 -3.822,17.853 m -60.118,-14.107 c 0.176,-0.981 0.407,-1.949 0.693,-2.903 l -1.555,2.903 z m 16.961,-21.638 5.516,-2.839 c -1.049,-1.375 -2.081,-2.733 -3.098,-4.075 -0.955,-1.259 -1.913,-2.553 -2.86,-3.866 l -10.593,19.757 c 2.968,-3.716 6.672,-6.73 11.035,-8.977" /></g></g></g><g
               id="g13185"><g
                 id="g13177" /><g
                 id="g13183"><g
                   style="opacity:0.27272004"
                   id="g13181"
                   clip-path="url(#clipPath13117)"><path
                     inkscape:connector-curvature="0"
                     id="path13179"
                     style="fill:#e6ced9;fill-opacity:1;fill-rule:nonzero;stroke:none"
                     d="m 352.85,266.829 -0.004,0.007 c -2.614,5.52 -6.41,10.04 -11.186,13.576 -2.756,2.041 -5.784,3.643 -9.069,4.687 -3.206,1.016 -6.507,1.531 -9.812,1.531 -5.374,0 -10.526,-1.314 -15.31,-3.903 -4.997,-2.702 -9,-6.682 -11.897,-11.831 l -0.228,-0.431 c -0.187,-0.373 -0.364,-0.748 -0.53,-1.125 v 15.818 h -84.147 v -32.437 h 14.755 c 4.075,-6.936 8.139,-13.906 12.117,-20.781 5.013,-8.666 10.028,-17.36 15.043,-26.079 l 0.344,-0.555 c 0.049,-0.074 0.096,-0.15 0.144,-0.228 l 0.16,-0.474 0.483,-0.844 c 4.746,-8.31 9.632,-16.784 14.52,-25.186 4.86,-8.357 9.694,-16.633 14.502,-24.827 l 7.63,-13.001 51.723,69.36 c 5.055,6.782 8.778,13.509 11.067,19.995 2.333,6.608 3.516,12.959 3.516,18.875 0,6.478 -1.286,12.485 -3.821,17.853 m -60.119,-14.108 c 0.176,-0.981 0.408,-1.949 0.694,-2.903 l -1.556,2.903 z m 16.961,-21.637 5.516,-2.84 c -1.049,-1.374 -2.081,-2.732 -3.098,-4.074 -0.955,-1.26 -1.913,-2.554 -2.86,-3.866 l -10.593,19.757 c 2.968,-3.716 6.672,-6.73 11.035,-8.977" /></g></g></g><g
               id="g13195"><g
                 id="g13187" /><g
                 id="g13193"><g
                   style="opacity:0.36363202"
                   id="g13191"
                   clip-path="url(#clipPath13121)"><path
                     inkscape:connector-curvature="0"
                     id="path13189"
                     style="fill:#debecc;fill-opacity:1;fill-rule:nonzero;stroke:none"
                     d="m 352.335,267.344 -0.004,0.008 c -2.614,5.52 -6.41,10.04 -11.186,13.576 -2.756,2.04 -5.784,3.643 -9.069,4.687 -3.207,1.016 -6.507,1.531 -9.811,1.531 -5.374,0 -10.527,-1.314 -15.312,-3.903 -4.996,-2.702 -9,-6.682 -11.896,-11.831 l -0.229,-0.431 c -0.185,-0.373 -0.362,-0.749 -0.529,-1.125 v 15.817 h -84.147 v -32.437 h 14.755 c 4.074,-6.936 8.138,-13.906 12.117,-20.78 5.013,-8.666 10.027,-17.36 15.042,-26.079 l 0.345,-0.556 c 0.048,-0.073 0.096,-0.149 0.145,-0.227 l 0.16,-0.475 0.481,-0.844 c 4.747,-8.309 9.633,-16.784 14.522,-25.185 4.859,-8.358 9.692,-16.633 14.501,-24.827 l 7.63,-13.001 51.723,69.36 c 5.055,6.781 8.779,13.509 11.068,19.994 2.333,6.609 3.515,12.958 3.515,18.875 0,6.479 -1.287,12.486 -3.821,17.853 m -60.119,-14.108 c 0.177,-0.98 0.408,-1.948 0.694,-2.902 l -1.556,2.902 z m 16.962,-21.636 5.515,-2.84 c -1.048,-1.374 -2.082,-2.733 -3.098,-4.074 -0.954,-1.26 -1.913,-2.554 -2.86,-3.867 l -10.592,19.756 c 2.967,-3.715 6.671,-6.728 11.035,-8.975" /></g></g></g><g
               id="g13205"><g
                 id="g13197" /><g
                 id="g13203"><g
                   style="opacity:0.45454401"
                   id="g13201"
                   clip-path="url(#clipPath13125)"><path
                     inkscape:connector-curvature="0"
                     id="path13199"
                     style="fill:#d5aebf;fill-opacity:1;fill-rule:nonzero;stroke:none"
                     d="m 351.819,267.859 -0.004,0.008 c -2.613,5.52 -6.41,10.04 -11.185,13.576 -2.757,2.041 -5.784,3.643 -9.069,4.687 -3.207,1.016 -6.507,1.531 -9.812,1.531 -5.374,0 -10.526,-1.314 -15.311,-3.903 -4.997,-2.702 -9,-6.682 -11.896,-11.831 l -0.229,-0.431 c -0.186,-0.373 -0.363,-0.748 -0.529,-1.125 v 15.817 h -84.147 v -32.437 h 14.755 c 4.074,-6.936 8.138,-13.905 12.117,-20.779 5.012,-8.666 10.027,-17.361 15.042,-26.079 l 0.345,-0.556 c 0.047,-0.073 0.096,-0.149 0.144,-0.228 l 0.16,-0.474 0.482,-0.844 c 4.747,-8.31 9.632,-16.784 14.521,-25.186 4.86,-8.357 9.693,-16.632 14.502,-24.827 l 7.63,-13.001 51.723,69.361 c 5.054,6.781 8.778,13.508 11.067,19.994 2.333,6.608 3.516,12.958 3.516,18.874 0,6.479 -1.287,12.486 -3.822,17.853 m -60.118,-14.108 c 0.176,-0.98 0.407,-1.948 0.694,-2.902 l -1.556,2.902 z m 16.961,-21.636 5.516,-2.84 c -1.049,-1.374 -2.081,-2.732 -3.098,-4.074 -0.955,-1.26 -1.913,-2.554 -2.86,-3.866 l -10.593,19.756 c 2.968,-3.715 6.672,-6.729 11.035,-8.976" /></g></g></g><g
               id="g13215"><g
                 id="g13207" /><g
                 id="g13213"><g
                   style="opacity:0.54545599"
                   id="g13211"
                   clip-path="url(#clipPath13129)"><path
                     inkscape:connector-curvature="0"
                     id="path13209"
                     style="fill:#cd9eb3;fill-opacity:1;fill-rule:nonzero;stroke:none"
                     d="m 351.304,268.375 -0.004,0.007 c -2.613,5.521 -6.41,10.041 -11.186,13.576 -2.756,2.041 -5.784,3.644 -9.069,4.688 -3.206,1.016 -6.507,1.531 -9.812,1.531 -5.374,0 -10.526,-1.314 -15.31,-3.904 -4.997,-2.701 -9,-6.682 -11.897,-11.83 l -0.228,-0.431 c -0.187,-0.373 -0.363,-0.749 -0.529,-1.125 v 15.817 h -84.148 v -32.437 h 14.755 c 4.074,-6.936 8.139,-13.906 12.117,-20.781 5.013,-8.666 10.028,-17.36 15.042,-26.079 l 0.345,-0.555 c 0.048,-0.074 0.097,-0.15 0.144,-0.228 l 0.161,-0.475 0.481,-0.843 c 4.747,-8.31 9.633,-16.785 14.522,-25.186 4.859,-8.357 9.693,-16.633 14.501,-24.827 l 7.63,-13.001 51.723,69.36 c 5.055,6.782 8.778,13.509 11.067,19.994 2.333,6.609 3.516,12.959 3.516,18.875 0,6.479 -1.286,12.486 -3.821,17.854 m -60.118,-14.108 c 0.175,-0.98 0.407,-1.948 0.693,-2.902 l -1.556,2.902 z m 16.96,-21.637 5.516,-2.84 c -1.049,-1.374 -2.081,-2.732 -3.098,-4.074 -0.955,-1.26 -1.913,-2.554 -2.86,-3.866 l -10.593,19.756 c 2.968,-3.715 6.672,-6.729 11.035,-8.976" /></g></g></g><g
               id="g13225"><g
                 id="g13217" /><g
                 id="g13223"><g
                   style="opacity:0.63636798"
                   id="g13221"
                   clip-path="url(#clipPath13133)"><path
                     inkscape:connector-curvature="0"
                     id="path13219"
                     style="fill:#c48ea6;fill-opacity:1;fill-rule:nonzero;stroke:none"
                     d="m 350.788,268.89 -0.004,0.007 c -2.613,5.521 -6.41,10.041 -11.185,13.577 -2.756,2.041 -5.785,3.643 -9.07,4.687 -3.206,1.016 -6.507,1.531 -9.811,1.531 -5.374,0 -10.527,-1.314 -15.311,-3.903 -4.997,-2.702 -9,-6.683 -11.896,-11.831 l -0.229,-0.431 c -0.186,-0.373 -0.363,-0.749 -0.529,-1.125 v 15.817 h -84.148 v -32.437 h 14.755 c 4.075,-6.935 8.14,-13.905 12.118,-20.78 5.012,-8.666 10.027,-17.36 15.043,-26.079 l 0.343,-0.556 c 0.049,-0.073 0.097,-0.149 0.145,-0.227 l 0.16,-0.475 0.482,-0.844 c 4.746,-8.309 9.632,-16.784 14.521,-25.185 4.859,-8.358 9.693,-16.633 14.502,-24.827 l 7.63,-13.001 51.722,69.36 c 5.055,6.781 8.779,13.509 11.068,19.994 2.333,6.609 3.515,12.959 3.515,18.875 0,6.479 -1.286,12.485 -3.821,17.853 M 290.67,254.782 c 0.176,-0.98 0.407,-1.948 0.693,-2.902 l -1.555,2.902 z m 16.961,-21.636 5.515,-2.84 c -1.048,-1.374 -2.081,-2.733 -3.097,-4.075 -0.955,-1.259 -1.913,-2.553 -2.861,-3.866 l -10.592,19.757 c 2.967,-3.716 6.672,-6.729 11.035,-8.976" /></g></g></g><g
               id="g13235"><g
                 id="g13227" /><g
                 id="g13233"><g
                   style="opacity:0.72728002"
                   id="g13231"
                   clip-path="url(#clipPath13137)"><path
                     inkscape:connector-curvature="0"
                     id="path13229"
                     style="fill:#bc7e99;fill-opacity:1;fill-rule:nonzero;stroke:none"
                     d="m 350.272,269.406 -0.003,0.007 c -2.614,5.521 -6.41,10.041 -11.185,13.576 -2.757,2.041 -5.785,3.643 -9.07,4.687 -3.205,1.016 -6.507,1.532 -9.812,1.532 -5.374,0 -10.525,-1.314 -15.309,-3.904 -4.998,-2.701 -9,-6.682 -11.897,-11.83 l -0.228,-0.432 c -0.188,-0.373 -0.365,-0.748 -0.53,-1.125 v 15.818 H 208.09 v -32.437 h 14.755 c 4.074,-6.937 8.139,-13.906 12.117,-20.78 5.013,-8.666 10.028,-17.361 15.043,-26.08 l 0.344,-0.555 c 0.048,-0.073 0.097,-0.15 0.145,-0.228 l 0.16,-0.474 0.482,-0.844 c 4.746,-8.31 9.632,-16.784 14.52,-25.186 4.86,-8.357 9.694,-16.632 14.502,-24.827 l 7.631,-13.001 51.722,69.361 c 5.054,6.781 8.778,13.508 11.067,19.994 2.333,6.608 3.516,12.958 3.516,18.874 0,6.479 -1.286,12.486 -3.822,17.854 m -60.118,-14.108 c 0.176,-0.981 0.409,-1.948 0.694,-2.902 l -1.555,2.902 z m 16.961,-21.637 5.516,-2.84 c -1.049,-1.374 -2.08,-2.732 -3.098,-4.074 -0.955,-1.26 -1.912,-2.554 -2.86,-3.866 l -10.593,19.756 c 2.968,-3.715 6.672,-6.729 11.035,-8.976" /></g></g></g><g
               id="g13245"><g
                 id="g13237" /><g
                 id="g13243"><g
                   style="opacity:0.81817597"
                   id="g13241"
                   clip-path="url(#clipPath13141)"><path
                     inkscape:connector-curvature="0"
                     id="path13239"
                     style="fill:#b46d8c;fill-opacity:1;fill-rule:nonzero;stroke:none"
                     d="m 349.758,269.921 -0.004,0.007 c -2.613,5.521 -6.41,10.041 -11.186,13.576 -2.756,2.041 -5.784,3.643 -9.069,4.687 -3.206,1.017 -6.507,1.532 -9.811,1.532 -5.375,0 -10.527,-1.314 -15.311,-3.904 -4.997,-2.701 -9,-6.682 -11.897,-11.83 l -0.228,-0.431 c -0.187,-0.373 -0.363,-0.749 -0.529,-1.125 v 15.817 h -84.148 v -32.437 h 14.755 c 4.074,-6.936 8.139,-13.906 12.117,-20.78 5.012,-8.666 10.027,-17.36 15.042,-26.079 l 0.344,-0.556 c 0.049,-0.073 0.097,-0.149 0.145,-0.227 l 0.16,-0.475 0.482,-0.843 c 4.747,-8.31 9.633,-16.785 14.522,-25.186 4.859,-8.357 9.693,-16.633 14.502,-24.827 l 7.629,-13.001 51.723,69.36 c 5.055,6.781 8.778,13.509 11.067,19.994 2.333,6.609 3.516,12.958 3.516,18.874 0,6.479 -1.286,12.486 -3.821,17.854 M 289.64,255.813 c 0.175,-0.98 0.407,-1.948 0.693,-2.902 l -1.556,2.902 z m 16.961,-21.636 5.515,-2.84 c -1.049,-1.374 -2.081,-2.733 -3.097,-4.074 -0.956,-1.26 -1.914,-2.554 -2.861,-3.867 l -10.593,19.756 c 2.968,-3.714 6.672,-6.728 11.036,-8.975" /></g></g></g><g
               id="g13255"><g
                 id="g13247" /><g
                 id="g13253"><g
                   style="opacity:0.90908802"
                   id="g13251"
                   clip-path="url(#clipPath13145)"><path
                     inkscape:connector-curvature="0"
                     id="path13249"
                     style="fill:#ab5d80;fill-opacity:1;fill-rule:nonzero;stroke:none"
                     d="m 349.242,270.437 -0.004,0.007 c -2.613,5.52 -6.41,10.04 -11.185,13.576 -2.756,2.041 -5.784,3.643 -9.07,4.687 -3.206,1.016 -6.506,1.531 -9.811,1.531 -5.374,0 -10.526,-1.314 -15.311,-3.903 -4.997,-2.702 -9,-6.682 -11.896,-11.831 l -0.229,-0.431 c -0.186,-0.373 -0.363,-0.748 -0.529,-1.125 v 15.818 H 207.06 v -32.437 h 14.754 c 4.075,-6.936 8.139,-13.906 12.118,-20.781 5.012,-8.666 10.027,-17.36 15.042,-26.079 l 0.344,-0.556 c 0.049,-0.073 0.097,-0.149 0.145,-0.227 l 0.16,-0.475 0.482,-0.844 c 4.747,-8.309 9.632,-16.784 14.521,-25.185 4.859,-8.358 9.693,-16.633 14.502,-24.828 l 7.63,-13 51.722,69.36 c 5.055,6.781 8.779,13.509 11.068,19.994 2.333,6.608 3.515,12.959 3.515,18.875 0,6.479 -1.286,12.486 -3.821,17.854 m -60.118,-14.108 c 0.176,-0.981 0.407,-1.949 0.693,-2.903 l -1.555,2.903 z m 16.961,-21.638 5.516,-2.839 c -1.049,-1.374 -2.081,-2.733 -3.098,-4.075 -0.955,-1.259 -1.913,-2.553 -2.86,-3.866 l -10.593,19.757 c 2.968,-3.716 6.672,-6.73 11.035,-8.977" /></g></g></g><path
               inkscape:connector-curvature="0"
               id="path13257"
               style="fill:#a34d73;fill-opacity:1;fill-rule:nonzero;stroke:none"
               d="m 348.727,270.952 -0.004,0.007 c -2.614,5.52 -6.376,10.087 -11.186,13.576 -2.736,2.068 -5.784,3.643 -9.069,4.687 -3.206,1.016 -6.507,1.531 -9.812,1.531 -5.374,0 -10.526,-1.314 -15.31,-3.903 -4.997,-2.702 -9,-6.682 -11.897,-11.83 l -0.228,-0.432 c -0.187,-0.373 -0.364,-0.748 -0.53,-1.125 v 15.818 h -84.147 v -32.437 h 14.755 c 4.074,-6.936 8.139,-13.906 12.117,-20.781 5.013,-8.666 10.027,-17.36 15.042,-26.079 l 0.345,-0.555 c 0.048,-0.074 0.096,-0.15 0.144,-0.228 l 0.16,-0.474 0.483,-0.844 c 4.746,-8.31 9.632,-16.784 14.52,-25.186 4.86,-8.357 9.694,-16.633 14.502,-24.827 l 7.63,-13.001 51.723,69.36 c 5.055,6.782 8.778,13.509 11.067,19.995 2.333,6.608 3.516,12.959 3.516,18.874 0,6.479 -1.286,12.486 -3.821,17.854 m -60.119,-14.108 c 0.176,-0.981 0.408,-1.948 0.694,-2.903 l -1.556,2.903 z m 16.961,-21.637 5.516,-2.84 c -1.049,-1.374 -2.081,-2.732 -3.098,-4.074 -0.955,-1.26 -1.913,-2.554 -2.86,-3.866 l -10.593,19.757 c 2.968,-3.716 6.672,-6.73 11.035,-8.977" /></g></g></g><path
         inkscape:connector-curvature="0"
         id="path13263"
         style="fill:none;stroke:#fffad5;stroke-width:20;stroke-linecap:butt;stroke-linejoin:miter;stroke-miterlimit:10;stroke-dasharray:none;stroke-opacity:1"
         d="m -177.77324,307.64644 c 1.907,-4.038 2.863,-8.566 2.863,-13.583 0,-4.802 -0.982,-9.982 -2.945,-15.545 -1.964,-5.565 -5.183,-11.348 -9.655,-17.347 l -42.711,-57.274 c -4.801,8.182 -9.629,16.446 -14.482,24.792 -4.856,8.345 -9.683,16.716 -14.482,25.119 -0.11,0.327 -0.274,0.68 -0.491,1.063 -0.219,0.381 -0.437,0.737 -0.655,1.064 -5.019,8.726 -10.038,17.427 -15.055,26.1 -5.019,8.674 -10.038,17.264 -15.054,25.774 h -10.474 v 12.437 h 64.147 v -12.437 h -9.654 l 32.729,-61.038 c 1.308,1.854 2.643,3.682 4.008,5.482 1.363,1.8 2.754,3.626 4.173,5.482 1.309,1.854 2.644,3.681 4.009,5.482 1.363,1.8 2.754,3.626 4.173,5.481 3.49,4.8 6.027,9.354 7.609,13.664 1.58,4.309 2.373,8.208 2.373,11.701 0,2.945 -0.547,5.565 -1.636,7.855 -1.092,2.291 -2.565,4.145 -4.418,5.564 -0.875,0.654 -1.775,1.118 -2.701,1.391 -0.927,0.271 -1.881,0.409 -2.863,0.409 -2.074,0 -3.928,-0.629 -5.564,-1.882 -1.636,-1.256 -2.454,-2.81 -2.454,-4.664 0,-0.327 0.025,-0.629 0.082,-0.899 0.053,-0.274 0.134,-0.573 0.245,-0.9 0.327,-0.875 0.926,-1.72 1.8,-2.537 0.872,-0.819 2.017,-1.611 3.436,-2.373 l -5.891,-10.964 c -3.6,1.854 -6.52,4.39 -8.754,7.61 -2.238,3.216 -3.301,6.681 -3.192,10.391 0,0.654 0.054,1.309 0.164,1.964 0.108,0.654 0.217,1.362 0.327,2.126 0.218,0.655 0.435,1.31 0.655,1.964 0.217,0.655 0.491,1.309 0.818,1.964 1.964,3.49 4.607,6.136 7.937,7.937 3.327,1.8 6.844,2.699 10.554,2.699 2.291,0 4.555,-0.355 6.791,-1.063 2.236,-0.711 4.281,-1.774 6.137,-3.191 3.49,-2.511 6.19,-5.784 8.101,-9.818 z" /><path
         inkscape:connector-curvature="0"
         id="path13265"
         style="fill:#105b63;fill-opacity:1;fill-rule:nonzero;stroke:none"
         d="m -177.77324,307.64644 c 1.907,-4.038 2.863,-8.566 2.863,-13.583 0,-4.802 -0.982,-9.982 -2.945,-15.545 -1.964,-5.565 -5.183,-11.348 -9.655,-17.347 l -42.711,-57.274 c -4.801,8.182 -9.629,16.446 -14.482,24.792 -4.856,8.345 -9.683,16.716 -14.482,25.119 -0.11,0.327 -0.274,0.68 -0.491,1.063 -0.219,0.381 -0.437,0.737 -0.655,1.064 -5.019,8.726 -10.038,17.427 -15.055,26.1 -5.019,8.674 -10.038,17.264 -15.054,25.774 h -10.474 v 12.437 h 64.147 v -12.437 h -9.654 l 32.729,-61.038 c 1.308,1.854 2.643,3.682 4.008,5.482 1.363,1.8 2.754,3.626 4.173,5.482 1.309,1.854 2.644,3.681 4.009,5.482 1.363,1.8 2.754,3.626 4.173,5.481 3.49,4.8 6.027,9.354 7.609,13.664 1.58,4.309 2.373,8.208 2.373,11.701 0,2.945 -0.547,5.565 -1.636,7.855 -1.092,2.291 -2.565,4.145 -4.418,5.564 -0.875,0.654 -1.775,1.118 -2.701,1.391 -0.927,0.271 -1.881,0.409 -2.863,0.409 -2.074,0 -3.928,-0.629 -5.564,-1.882 -1.636,-1.256 -2.454,-2.81 -2.454,-4.664 0,-0.327 0.025,-0.629 0.082,-0.899 0.053,-0.274 0.134,-0.573 0.245,-0.9 0.327,-0.875 0.926,-1.72 1.8,-2.537 0.872,-0.819 2.017,-1.611 3.436,-2.373 l -5.891,-10.964 c -3.6,1.854 -6.52,4.39 -8.754,7.61 -2.238,3.216 -3.301,6.681 -3.192,10.391 0,0.654 0.054,1.309 0.164,1.964 0.108,0.654 0.217,1.362 0.327,2.126 0.218,0.655 0.435,1.31 0.655,1.964 0.217,0.655 0.491,1.309 0.818,1.964 1.964,3.49 4.607,6.136 7.937,7.937 3.327,1.8 6.844,2.699 10.554,2.699 2.291,0 4.555,-0.355 6.791,-1.063 2.236,-0.711 4.281,-1.774 6.137,-3.191 3.49,-2.511 6.19,-5.784 8.101,-9.818" /></g></g></svg>